<svg class="img-fluid" xmlns="http://www.w3.org/2000/svg" style="transform:matrix(1,0,0,1,0,0);transform-origin:50% 50%;cursor:move;max-height:none;transition:transform 200ms ease-in-out 0s" width="500" height="500" viewBox="0 0 5000 5000">
  <path d="M2600 4635c0-33 2-35 35-35s35 2 35 35-2 35-35 35-35-2-35-35zm120-20c0-32 3-35 43-46 23-6 62-18 87-26s69-17 98-20l52-6v70l-87 22c-49 13-98 27-111 32s-36 9-52 9c-27 0-30-3-30-35zm-540-20c0-34 1-35 40-35s40 1 40 35-1 35-40 35-40-1-40-35zm-420-170c0-39 24-50 33-15 3 11 12 20 21 20s16 7 16 15c0 10-11 15-35 15-33 0-35-2-35-35zm-33-1458c-9-40-17-91-17-113 0-33 5-41 27-51 93-44 119 17 86 205-5 29-8 32-42 32h-37l-17-73zm1359 12c-11-108-11-109 28-109 33 0 35 2 42 45 3 25 11 45 16 45s8 17 6 38c-3 36-4 37-44 40l-41 3-7-62zm-646-1584c0-34 1-35 40-35s40 1 40 35-1 35-40 35-40-1-40-35zm39-67c-7-13-18-43-25-68l-12-45-7 33c-4 17-14 32-22 32-7 0-16 7-19 15-7 17-74 21-74 5 0-5-9-10-19-10-42 0-51-10-51-61 0-37-4-49-15-49-10 0-15-11-15-35 0-28 4-35 20-35 15 0 20-7 20-25 0-23 3-25 50-25s50 2 50 25c0 20 5 25 25 25s25 5 25 25c0 14 5 25 10 25 6 0 10-4 10-10 0-5 9-10 19-10s21-7 25-15c4-11 20-15 55-15 40 0 50-3 54-20 4-15 14-20 41-20 30 0 38 5 46 26 17 44 13 84-9 84-17 0-18 5-14 40 7 47-13 69-59 70-24 0-28 4-28 30 0 28-3 30-35 30-25 0-37-6-46-22zm-459-292c0-19 4-46 9-60 16-41 94-115 129-122 18-4 32-10 32-14s9-10 20-13c14-4 20-14 20-34 0-26 7-33 53-56 45-23 65-27 141-27 72 0 95 4 122 21 19 11 34 25 34 30s10 9 23 9 52 19 88 43l64 43 3 77 3 77h-36c-20 0-41-5-48-10-7-6-40-31-75-56-57-42-70-47-143-55-45-5-86-12-91-15-15-10-148 18-148 31 0 21-36 45-67 45-33 0-50 22-62 81-6 29-11 34-39 37-31 3-32 2-32-32z" fill="#030409" style="transform:none"/>
  <path d="M2420 4673c-75-6-199-31-302-60-95-27-98-29-99-58-1-19-3-23-6-11-4 15-12 17-46 13-23-3-52-9-64-13-19-5-23-2-23 15 0 18-6 21-38 21-36 0-39-2-70-62-25-49-32-76-32-120 0-33 5-58 11-60 9-3 9-9 0-25-6-12-11-44-11-71 0-41 4-51 24-61 12-7 34-11 47-9 21 3 24 9 25 45 0 24 4 46 7 50 4 3 7 19 7 35 0 25-2 27-19 17-24-16-55-4-47 17 3 9 6 33 6 55 0 32 3 39 20 39 13 0 20-7 20-20 0-11 5-20 12-20 15 0 122 52 126 62 2 4 15 8 28 8 20 0 24 5 24 30 0 28 3 30 36 30 19 0 92 14 162 30 70 17 173 36 229 42 96 11 108 10 235-16 73-15 179-41 236-57 56-16 114-29 127-29 22 0 25 4 25 34 0 31-4 35-47 54-189 80-392 112-603 95zm730-523v-50h70v100h-70v-50zm35-160c-7-22-31-27-38-7-3 6-6-20-6-59-1-78 3-84 59-84 32 0 40 18 40 93 0 65-40 106-55 57zm-1655-335c0-34 1-35 40-35s40 1 40 35-1 35-40 35-40-1-40-35zm1635-55c-7-23-16-25-33-8-9 9-12 4-12-25 0-24 5-40 15-43 8-4 15-15 15-25 0-11 7-36 15-55l15-36 52 6c29 4 77 9 106 12l52 6v39c0 32-3 39-20 39-11 0-20 7-20 15s-4 15-9 15-11 14-15 30c-7 36-36 50-106 50-40 0-50-4-55-20zm-1607-7c-13-3-18-15-18-39 0-33 1-34 38-34 20 0 54 3 75 6 34 6 37 9 37 40v34l-57-1c-32-1-66-3-75-6zm2-208c0-23 5-35 14-35 7 0 19-7 26-15 16-19 84-20 99-1 7 8 11 30 9 48l-3 33-72 3-73 3v-36zm1546-54c-4-6-6-51-5-99 1-60-3-96-12-113-10-16-14-60-14-139 0-110 1-117 33-177 17-34 32-70 32-79 0-10 6-25 14-33 8-9 19-33 24-53 9-33 8-38-7-38-14 0-20-14-29-64-20-106-18-116 23-116 31 0 35 3 44 38 6 20 11 56 11 80 0 40 1 42 30 42 27 0 30 3 30 33 0 19-11 61-25 95-30 74-30 79-5 87 16 5 20 15 20 53-1 26-7 58-15 72s-15 45-15 70c0 45-28 122-49 134-6 4-11 24-11 45 0 35 3 39 31 45 17 3 42 6 55 6 21 0 24 5 24 35 0 25-6 37-22 46-13 7-26 17-30 22-9 15-124 22-132 8zm-1422-83c-9-17-19-58-22-91l-5-59 43 4 42 4-5-61c-3-33-22-115-41-182-20-67-36-138-36-158 0-35 0-35 45-35 39 0 45 3 45 20 0 12 10 24 23 29 36 14 81 112 73 159-3 20-10 87-15 147-12 133-18 155-42 155-15 0-19 7-19 40s-3 40-20 40c-11 0-20 5-20 10 0 22-31 8-46-22zm111-285c3-27 8-57 10-69 3-11-2-30-10-41s-13-22-12-24-3 2-10 9c-6 8-16 11-22 7-6-3-11-1-11 6 0 27 34 159 41 159 4 0 11-21 14-47zm565-1563c0-28-3-30-35-30-30 0-35-4-35-22 0-14-14-33-35-48-31-22-34-30-35-73 0-34-4-47-12-45-20 7-21 43-4 77 9 16 16 44 16 61 0 28-3 30-35 30-44 0-53-20-62-132-7-89 2-108 51-108 46 0 76-11 76-26 0-10 16-14 60-14 56 0 60 1 60 24 0 19 6 24 38 30 69 11 122 7 122-9 0-8 5-15 10-15 6 0 10-7 10-15 0-19 41-29 85-21 26 5 35 12 35 26 0 17 7 20 40 20 48 0 56 12 66 98 3 34 11 62 15 62 5 0 9 5 9 10 0 6-9 10-21 10-13 0-23 10-31 30-12 35-35 50-77 50-25 0-30-5-34-27l-4-28-2 28c-1 26-3 27-56 27-52 0-55 1-55 25 0 22-4 25-35 25-33 0-35-2-35-35 0-28 4-35 20-35 26 0 25-11-4-66-23-42-25-44-32-22-4 13-18 40-31 61l-23 37h30c28 0 30 3 30 35 0 34-1 35-40 35-38 0-40-2-40-30zm153-115c-9-19-18-33-21-31-4 5 26 66 33 66 3 0-3-16-12-35zm175-47c7-25 7-39-1-47-20-20-25-11-29 49-3 66 12 65 30-2zm-318 6c10-31 10-37-6-48-18-14-13-53 6-41 5 3 10 1 10-4 0-7-26-10-67-10-38 1-55 4-40 6 35 5 45 28 23 52-17 19-22 56-6 46 6-3 10-1 10 4 0 6 11 11 25 11s25 5 25 10c0 20 9 9 20-26zm232 2c15-11 15-15 3-33-20-28-8-61 24-66 14-2-6-5-46-6-39 0-75 4-78 9-3 6 3 10 14 10 32 0 45 34 21 55-27 24-25 33 8 38 15 2 29 5 32 5 3 1 13-4 22-12zm-272-147c0-5-9-9-20-9s-20 6-20 14c0 9 7 12 20 9 11-3 20-9 20-14zm-310-58c0-30 6-55 15-64 8-8 11-18 7-22-4-5-1-5 6-1 8 5 10 17 7 29-5 19-5 20 5 4 6-9 9-21 6-26-9-14 4-41 20-41 7 0 16-11 20-24 6-24 46-46 82-46 8 0 21-8 28-17 12-17 12-17 11 2-1 11 3 19 8 18 103-16 105-16 105 5 0 20-32 32-86 32-13 0-24 5-24 10 0 6-11 28-25 50-23 37-29 40-70 40-45 0-45 0-45 34 0 52-9 66-41 66-28 0-29-2-29-49zm651-27c-27-35-119-103-148-110-15-4-23-14-23-26 0-18 5-20 36-15 20 3 60 24 90 47 30 22 54 37 54 33s4-2 9 6c12 19 30 5 24-18-4-16-1-19 15-14 23 5 32 30 32 86 0 36-1 37-34 37-25 0-40-7-55-26zm-293-131c-20-3-28-10-28-24 0-22 10-23 80-8 31 7 50 16 50 25 0 14-38 17-102 7zm337-3c-4-6-9-9-13-6-4 2-16-5-26-15-19-19-19-19 17-19 33 0 37 3 37 25 0 27-5 31-15 15z" fill="#0C070E" style="transform:none"/>
  <g fill="#180B15" style="transform:none">
    <path d="M2420 4671c0-5-9-7-20-4-19 5-114-8-202-28-29-7-48-16-48-25 0-10-13-14-45-14-25 0-78-11-117-25-86-30-84-30-91-5-4 15-14 20-42 20-43 0-75-29-75-67 0-12-6-23-13-23-28 0-53-163-26-172 7-2 7-12 0-31-16-42-14-118 2-111 8 3 20-2 27-11 18-22 53-18 79 9 21 22 22 30 16 90-4 36-10 66-14 65-3 0-21-18-38-41-35-43-43-78-17-78 8 0 13-4 9-10-3-5-13-6-21-3-12 4-14 15-10 42 14 79 17 163 6 156-5-3-10 0-10 7 0 17 62 138 71 138 4 0-7-25-24-57l-30-56 34 6c19 3 43 8 54 12s5-2-12-14c-41-26-42-41-3-41 17 0 30 5 30 10 0 6 9 10 20 10s20 5 20 10c0 6 9 10 20 10 31 0 89 34 90 52 0 13 15 20 60 29 38 7 60 17 60 25 0 9 8 12 28 8 15-3 73 4 129 15 55 12 119 21 141 21s42 4 44 9 77-7 168-25 184-34 208-34c28 0 45-5 48-15 4-9 19-15 35-15s29-4 29-8c0-11 69-32 104-32 23 0 26 4 26 33s-5 36-45 55c-25 12-54 22-65 22s-20 4-20 9c0 9-102 43-201 65-94 21-199 31-199 19 0-7-15-7-42-2-58 11-128 11-128 0zm271-37c93-16 290-74 319-95 12-8 9-9-10-3-177 51-397 95-468 95-86 0-206-18-330-48-121-28-146-26-40 5 196 56 377 72 529 46zm453-181c15-188 17-241 7-247-5-4-10-44-10-92 0-74 2-84 15-74 11 10 17 10 30-1 14-11 18-10 31 6 13 17 14 48 9 195-3 96-9 199-12 228-7 51-7 52-41 52h-35l6-67zm-1401-395c-6-7-8-32-5-56 4-40 6-43 31-40 23 3 26 8 29 43 3 29-1 43-14 52-22 16-29 16-41 1zm1444-58c-3-11 1-27 9-34 15-15 17-37 8-73-6-23-34-21-34 3 0 8-7 14-16 14-15 0-16-10-11-82 4-46 15-108 26-138s16-57 12-60c-5-3-12-15-16-28-4-15-12-21-21-18-11 4-14-6-14-49 0-29-4-57-10-60-5-3-10-31-10-61s5-54 10-54c6 0 10-4 10-10 0-5-7-10-15-10-10 0-15-11-15-35 0-19 5-35 10-35 6 0 10-4 10-10 0-5-7-10-16-10-12 0-15-11-13-52 1-29-3-66-9-81-18-42-16-117 3-117 9 0 17 14 21 40 4 22 12 47 19 57 11 15 15 16 31 3 27-23 53-90 52-136 0-22 7-55 17-74 16-30 16-34 1-42-9-5-14-13-11-19 4-5 2-9-3-9-14 0-32-56-22-66 7-8 60-132 60-141 0-2-6-3-14-3-9 0-19 19-26 50-6 27-18 54-26 61-8 6-14 20-14 31 0 23-17 58-29 58-4 0-7-69-7-152 1-84-3-192-8-240l-9-88h37c24 0 36 5 36 14 0 17 22 26 67 26 35 0 35 0 31 40-3 31 0 40 12 40 9 0 22 9 30 20s20 20 26 20c14 0 24 46 24 110 0 59-43 211-75 265-13 23-35 83-48 135-14 52-28 105-32 118-6 19-3 23 24 28 26 5 31 11 31 34s5 29 30 34c26 5 30 10 30 38 0 65 7 74 51 70 38-4 39-4 39 30 0 18-7 44-16 56-13 18-13 22-1 22 10 0 16 17 21 53 9 76 8 87-9 87-8 0-15 9-15 19 0 13-8 21-22 23s-34 21-53 52c-26 43-30 57-28 115 1 40-6 101-19 154l-21 87h-37c-29 0-39-4-43-20zm78-420c17-6 27-20 31-40 4-16 12-30 18-30s4-5-4-10c-12-7-8-11 18-16 48-10 39-22-20-27-29-2-63-8-76-12-19-6-24-2-37 29-19 45-19 46 4 46 35 0 32 18-4 24-47 9-53 23-7 18 33-4 35-3 23 12-12 14-11 16 7 16 11 0 32-4 47-10zm-55-289c3-4 16-14 30-22 24-13 23-13-29-21-30-5-57-11-60-13-2-3-4-18-4-35 0-16-4-27-9-24-10 6-11 118-1 128 9 9 65-1 73-13zm-30-801c-16-60-20-46-6 25 6 33 12 50 14 38s-2-40-8-63zM1528 3688c-23-8-28-16-28-44 0-33 1-34 39-34 22 0 43 5 46 10 3 6 17 10 31 10 21 0 24 5 24 35 0 35 0 35-42 34-24 0-55-5-70-11zm25-95c-39-13-43-18-43-49v-35l93 6c114 8 117 9 117 39 0 51-80 70-167 39zm82-33c-16-4-39-8-50-8l-20-1 20 9c11 5 34 8 50 8h30l-30-8zm-145-162c0-18 3-57 6-85l7-53h41c29 0 62 12 113 40 75 42 93 62 93 103 0 24 0 24-130 26l-130 2v-33zm184-17c3-5-1-14-9-21-12-10-19-10-33 2-9 9-24 18-32 21s4 6 27 6c23 1 44-3 47-8zm16-110c-5-11-10-31-10-45 0-13-5-26-11-28s-13-33-16-70l-6-65 47-7c44-7 46-9 40-34-18-81-36-145-58-209-29-85-41-153-31-182 5-17 14-21 50-21 40 0 45 3 51 28 12 53 14 57 36 67 15 7 26 24 32 50 5 22 15 44 22 48 15 8 18 63 8 116-5 21-12 31-25 31-21 0-23-11-10-57 7-25 4-41-17-83-15-30-35-55-49-61-14-5-23-17-23-29 0-11-7-20-15-20-20 0-20-1 15 113 39 131 60 242 55 297l-5 45 14-40c8-22 15-53 16-70 2-18 4-23 7-12 2 9 9 17 14 17 12 0 12 127 0 134-5 4-12 24-16 46-7 41-19 58-30 40-9-15-42-12-49 5-8 21-23 19-36-4zm40-82c-8-22-20-45-28-51-13-11-14-8-7 22 4 19 14 49 23 65 20 40 28 15 12-36z"/>
    <path d="M3070 2915c0-28 4-35 20-35 21 0 24 10 14 48-10 36-34 27-34-13zm-630-1510c0-31 3-36 30-41 30-7 43-34 15-34-9 0-15-9-15-25 0-14-4-25-10-25-5 0-10-7-10-16 0-14-2-14-15 0-8 8-15 20-15 26s-16 27-35 46c-34 33-38 34-114 34-92 0-111-5-111-31 0-10-6-19-14-19-19 0-30-89-19-150l9-45 89-1 90-2-65 10c-85 12-95 18-97 59l-1 34 6-35c7-35 7-35 65-38 51-3 57-1 57 16 0 11-7 25-15 32s-15 20-15 29c1 20 69 73 90 69 8-2 22-24 30-50 8-27 18-48 22-48s3 12-2 26c-13 32-13 47-1 39 5-3 12-19 16-35 4-17 13-30 21-30s14-4 14-10c0-5 7-10 15-10s15 4 15 10c0 20 42 121 56 135 9 8 30 15 47 14 33-1 30-3-14-13-14-3-31-17-37-31-14-30-13-30 33-8 36 17 37 17 56-7 24-32 26-92 3-83-12 4-15 1-12-13 4-25 92-41 116-22 13 11 14 11 10-2-2-8-17-16-31-18-39-5-33-22 8-22 30 0 35 3 35 24 0 14-7 32-16 40-16 16-9 21 25 16 19-2 33 22 18 32-8 6-4 15 16 31 37 31 35 47-8 47-24 0-35 5-35 15 0 8-4 15-10 15-5 0-10 7-10 15 0 12-17 15-95 15h-95v29c0 31-14 41-61 41-27 0-29-3-29-35zm250-150c0-8-4-15-10-15-5 0-10 7-10 15s5 15 10 15c6 0 10-7 10-15zm-47-275c-3-11-14-20-24-20-11 0-19-4-19-10 0-5-6-10-13-10s-23-9-35-20-35-20-52-20c-23 0-30-4-30-20 0-41 84-19 167 45 25 19 53 44 60 55 13 19 12 20-17 20-23 0-33-5-37-20z"/>
  </g>
  <g fill="#1E0F1A" style="transform:none">
    <path d="M2560 4695c0-34-1-35-40-35-23 0-40 5-40 11 0 12-132 5-165-8-11-4-15 2-15 21 0 23-4 26-35 26-32 0-35-3-35-29 0-27-4-30-84-55-46-14-89-26-95-26s-11-4-11-10c0-5-11-10-24-10s-42-7-65-15l-41-14v29c0 27-3 30-32 30-52 0-55-5-73-97-6-27-5-27 9 3 16 35 31 48 46 39 6-4 1-18-12-35-12-17-20-32-17-34 2-3 42 9 88 25s85 28 87 26c3-3-38-21-133-57-18-7-37-18-44-26-13-15 12-10 100 25 30 11 56 19 58 17s-22-14-54-27c-78-31-103-48-103-70 0-23 38-26 46-4 4 8 12 15 20 15s14 8 14 19c0 15 10 20 60 25 50 6 60 10 60 26 0 22 17 28 185 66 163 38 385 40 545 6 145-31 244-56 250-63 3-3 22-12 42-19 34-12 37-17 40-54 3-40 4-41 45-44 39-3 42-1 46 25l4 28 2-29c1-24 3-27 16-16 16 13 21 116 7 135-16 23-173 125-192 125-11 0-20 6-20 13 0 26-212 77-317 77-38 0-42-3-46-27l-4-28-2 28c-1 24-5 27-36 27-33 0-35-2-35-35zm233-79c98-25 283-93 274-102-1-2-35 7-74 21-38 13-151 40-249 61l-179 37-120-12c-66-6-187-26-270-45-82-19-151-33-153-31s16 9 39 15c24 6 80 22 124 36 200 60 418 67 608 20z"/>
    <path d="M1720 4376c0-19 4-36 8-38 5-1 3-30-4-63-21-100-17-137 11-98 11 15 15 15 29 4 24-20 19-68-9-105l-25-33 22-16c22-16 22-17 6-30-26-20-25-87 1-87 20 0 60 34 84 71 20 32 33 189 16 189-8 0-6 6 4 18 12 13 26 17 48 14s52 5 100 29c65 31 69 35 69 66s-2 33-32 33c-18 0-57-11-86-25-61-28-92-22-92 20 0 37-23 30-42-14-22-46-22-60-2-68 13-5 12-9-7-29-47-50-76-17-48 53 18 45 20 93 3 93-8 0-14 10-14 25 0 18-5 25-20 25-16 0-20-7-20-34zm1430-50c0-68 31-117 43-68 4 16 5 16 6 0 0-10 8-18 17-18 23 0 16 103-8 108-9 2-18-5-21-15-4-17-5-17-6 0-2 27-31 21-31-7z"/>
    <path d="M3138 4213c-21-5-25-62-7-80 8-8 8-17 0-31-11-22-15-92-5-92 3 0 14 10 23 22 21 25 41 17 41-18 0-19 5-24 25-24 14 0 24-3 23-7-1-5 6-32 15-62 9-29 14-57 11-62s-2-14 2-20c3-6 7-43 8-83 1-59 6-79 29-119 16-27 36-51 44-54 14-5 13-8-3-20-10-7-13-14-6-14 7-1 17-3 22-4 6-1 19-3 31-4 26-1 14-21-14-22-20-1-20-2 3-8l25-7-25-8-25-7 25-11 25-12-30-3c-56-7-58-11-26-44 17-17 36-40 43-52 10-20 7-19-25 6-43 32-51 34-44 7 3-11 1-20-5-20s-7-7-4-16c3-8 2-13-3-10-12 8-34-21-26-34 3-6 10-8 14-6 11 7 8-38-3-46-6-4-29-8-52-8-22 0-44-3-47-7-8-7 34-39 46-35 4 1 7-2 7-7s-13-11-29-14c-25-5-30-12-33-39-2-18 2-45 9-60s22-66 33-113c11-48 31-106 45-128 40-69 78-220 70-274l-7-47-45 89c-25 50-49 94-54 100-19 19-8-17 23-78 39-78 49-119 33-134-19-17-74 76-87 146-12 66-18 78-29 60-6-10-9-8-9 8 0 15-5 21-14 17-9-3-16-29-21-70-6-57-4-67 13-82 10-9 22-24 25-32 4-8 5 12 3 45s-1 47 2 30c6-30 6-29 13 10 5 24 7-10 5-89-2-102-5-131-17-140-9-6-19-18-22-26-4-8-5 9-2 38 5 47 4 52-15 52s-20-6-20-100v-100h39c43 0 56 11 67 54l7 29 14-27c11-20 21-26 48-26 28 0 35 4 35 20 0 11 6 20 14 20 17 0 26 22 26 61 0 16 4 29 9 29 16 0 22 85 12 174-6 53-25 127-47 189-83 235-84 238-74 256 14 27 39 45 79 56 34 10 36 13 39 59 2 33-2 54-12 65-14 15-14 19 4 34 11 9 20 26 20 37 0 15 7 20 25 20 23 0 25 4 25 40 0 22-4 40-10 40-5 0-10 5-10 10 0 6 6 10 13 10 9 0 17 28 25 89 16 119 16 121-11 121-31 0-57 55-58 123 0 29-6 88-13 131-10 62-18 83-35 94-12 8-21 25-21 39 0 24-3 25-49 21l-49-3-7 98c-8 108-25 132-25 34 0-40-5-70-15-83-16-21-18-11-6 21 5 11 4 31-1 44-5 16-5 28 2 35 5 5 10 18 10 28 0 18-15 21-52 11zm105-1773c6-20 4-19-8 5-8 17-14 44-13 60 0 29 0 29 7-5 4-19 11-46 14-60zM1670 4055c-5-14-10-44-10-66 0-32 4-39 19-39 19 0 22 10 33 100 4 36-29 40-42 5z"/>
    <path d="M3140 3773c0-41 4-63 9-55 12 20 21-9 21-66s-13-83-32-64c-23 23-29 12-28-50 1-35-2-91-5-125-5-43-3-63 4-63 6 0 12-17 12-37 1-21 3-30 6-20 2 9 10 17 18 17 14 0 25 22 25 52 0 11 8 33 17 49 9 15 13 32 9 36s-11 1-16-7-16-24-24-35c-15-20-15-20-16 4 0 14 10 35 22 48 17 18 19 26 10 35-17 17-15 25 11 32 22 6 22 7-5 22-34 18-36 28-5 19 18-6 20-5 10 6-20 21-15 29 17 29 17 0 30 3 30 6 0 16-24 101-31 110-5 6-11 24-13 40-7 55-18 84-32 84-11 0-14-16-14-67zm-1592-76c-7-7-41-20-75-27-62-14-63-14-63-48v-35l73 6c44 4 64 3 52-3-11-5-46-9-77-9l-58-1v-69l78-3c76-3 77-3 80-30 3-23 8-28 31-28 58 0 87 12 108 43 37 54 37 64 5 94-22 20-32 41-37 76l-7 47h-48c-27 0-54-6-62-13zm32-42c-46-18-64-17-25 0 17 8 37 14 45 14s-1-7-20-14zm103-90c-2-5-31-11-65-12l-63-2 35 14c39 15 96 16 93 0zm77-123c0-14-72-23-87-10-10 8-13 6-13-11s6-21 31-21c27 0 30-2 18-16-7-8-44-33-83-54-74-41-108-51-87-27 6 8 8 16 5 20-3 3 5 3 18 0 23-6 23-6 3 14-14 14-22 16-27 9-5-6-8-7-9-1 0 6-2 20-5 33-3 17 1 22 16 22 13 0 18 5 14 15-4 9-19 15-39 15-30 0-33-3-40-42-4-24-8-63-9-88l-1-45 46-3 46-3-15-63c-8-34-12-75-8-89 6-24 11-27 51-27 31 0 47 5 55 18 18 28 2-34-22-88-30-64-50-153-55-242l-5-78h36c36 0 36 0 36-42 0-73 8-88 44-88 48 0 66 18 73 77 5 43 9 52 27 55 16 2 25 16 38 57 10 29 25 59 34 65 13 10 15 22 10 57-4 24-10 116-14 204-6 120-13 168-25 193-20 37-28 39-44 13-12-19 0-95 18-116 5-5 9-56 9-113s5-123 11-148c10-37 9-47-4-62-8-9-19-33-24-52-5-21-18-39-31-45-13-5-25-21-28-35-12-52-16-60-30-60-22 0-21 47 1 111 8 22 10 39 5 39-12 0-1 32 16 46 16 13 54 164 54 215 0 23-7 42-19 53-19 17-47 14-36-4 3-5-4-8-15-7-26 2-25 13 3 100 13 40 25 88 26 107s4 43 7 53c6 20 30 23 37 5 3-7 6 8 6 34 1 26-3 50-9 53-5 3-10 2-10-3zm1326-234c-3-35-8-87-12-115-5-42-3-53 8-53 9 0 20 18 27 40 10 34 16 40 32 35 23-8 23-7 0 46-12 27-17 54-14 76 5 28 3 33-15 33s-21-8-26-62zm-16-303c0-19 5-35 10-35 6 0 10-11 10-24 0-14 7-31 15-40 8-8 15-22 15-30 0-10 9-16 25-16h25l-16 38c-9 20-26 61-38 89-24 61-46 69-46 18zm-290-968c0-22 3-23 37-18 25 4 39 12 41 24 3 14-4 17-37 17-36 0-41-3-41-23zm-530-587c0-5 15-10 34-10s41-3 50-6c11-4 16-1 16 10 0 13-11 16-50 16-27 0-50-4-50-10zm272-2c-7-7-12-19-12-27 1-13 2-13 11 2 7 12 23 17 57 17s43 3 32 10c-21 14-74 12-88-2zm128 2c0-5 8-10 18-10 20 0 42-18 42-34 0-6-5-3-11 7-14 24-49 22-49-4 0-17 5-20 33-17s32 7 35 36c3 31 2 32-32 32-20 0-36-4-36-10zm-443-27c-10-3-25-19-32-36-8-18-14-26-15-19 0 7 5 22 10 33 9 16 7 19-8 19-21 0-32-25-32-72 0-29 14-38 23-15 4 10 6 10 6 0 1-8 15-13 36-13 23 0 33 4 30 13-3 6 17 27 45 46 27 19 50 38 50 43 0 8-81 9-113 1z"/>
    <path d="M2545 1310c-17-19-17-19 15-7 29 11 34 10 50-10 24-30 30-29 30 7 0 28-2 30-38 30-26 0-45-7-57-20zm-415-133c0-47 15-57 84-57 43 0 57 3 46 10-8 5-31 10-51 10-41 0-59 15-59 47 0 13-4 23-10 23-5 0-10-15-10-33z"/>
    <path d="M2160 1191c0-29 24-42 69-39 75 5 44 58-33 58-29 0-36-4-36-19z"/>
  </g>
  <path d="M2480 4975c0-22 4-25 35-25s35 3 35 25-4 25-35 25-35-3-35-25zm130 2c0-32 30-57 69-57 31 0 32 1 29 38s-3 37-50 40c-45 3-48 1-48-21zm0-3817c0-5 12-10 26-10s23 4 19 10c-3 6-15 10-26 10-10 0-19-4-19-10zm-22-27c-36-6-40-43-5-42 12 0 16 3 10 6-24 9-13 23 17 23 17 0 30-4 30-10 0-5-7-10-15-10s-15-4-15-10c0-5 16-10 35-10 32 0 35 2 35 30 0 27-3 30-32 29-18-1-45-4-60-6zm-560-89c-5-4-8-19-8-33 1-23 2-24 11-8 11 19 9 53-3 41zm28-23c3-39 68-155 96-169 13-6 35-16 51-22 21-7 27-16 27-40 0-23 10-41 42-70 35-34 48-40 82-39 57 1 147 21 177 40 13 8 44 25 69 37s70 39 100 60c54 36 55 38 69 108 18 88 12 104-33 104-28 0-34-4-39-25-4-25-4-25 14-9s19 16 19-4c0-12-6-33-12-48-10-22-10-28 0-32 21-7 13-22-24-44-25-15-32-23-23-29 9-5 1-13-25-25-30-15-39-16-45-5-7 10-15 9-42-5-19-9-56-23-84-29l-50-13 65-2c91-2 49-18-51-19-63-1-84 3-125 25-52 27-94 62-94 77 0 5 9 11 20 14 33 9 24 40-14 53-36 11-46 26-46 65 0 24-17 35-56 35-17 0-24 6-24 20s-7 20-23 20c-19 0-23-5-21-29zm123-106c20-34 18-43-5-27-23 15-47 81-25 68 5-3 18-22 30-41z" fill="#101826" style="transform:none"/>
  <g fill="#2A1420" style="transform:none">
    <path d="M2740 4667v-34l83-20c45-11 134-44 197-72 125-56 151-62 129-33-11 14-11 15 1 5 19-18 30-16 30 5 0 26-154 132-230 159-44 15-88 23-137 23h-73v-33zm88 13c12 0 22-3 22-7 0-7-26-8-75-4-8 0-15 6-15 12 0 7 9 9 23 5 12-3 32-6 45-6zm-650-67c-16-2-28-9-28-14 0-11-4-12 50 5 43 14 35 17-22 9z"/>
    <path d="M2478 4613c-10-3-18-11-18-19 0-10 12-14 43-14 23 0 121-13 217-30 96-16 187-30 203-30 15 0 27-4 27-9s9-11 20-14 20-12 20-20c0-12-13-13-69-9-100 7-121 0-121-42 0-31 4-35 65-64 35-18 69-32 74-32s31-7 58-16l50-16-5-47c-4-46-3-49 37-80 39-31 41-35 41-87 0-65 17-71 43-15 21 46 21 60 2 89-13 18-14 21-1 16 23-9 29 29 21 135-6 91-8 97-28 97-36-1-35 19 1 22 31 3 32 2 32-34 0-53 21-30 27 30l6 46h-32c-17 0-67 13-109 30-124 48-177 61-402 101-65 11-177 18-202 12zm-169-13c-118-20-159-32-159-46 0-18 35-18 120 1 36 8 89 14 118 15 45 0 52 3 52 20s-6 20-42 19c-24-1-64-5-89-9zm-346-88c-95-43-101-62-7-22 26 11 49 18 52 16 3-3-6-10-19-15-106-40-128-61-64-61 19 0 35 4 35 10s18 7 45 3c27-3 56-1 75 7 25 10 30 18 30 46 0 29-4 34-22 34-13 0-32 2-43 5s-48-8-82-23zm-115-89c-25-27-14-123 13-123 21 0 24 31 11 104-7 37-8 38-24 19zm-127-75c1-29-6-71-14-93s-18-67-22-100c-3-33-12-70-20-82-16-23-19-71-9-111 9-34 40-24 37 12-1 15 3 39 9 54s13 43 14 62c2 20 12 63 23 96 25 79 36 169 22 178-5 4-8 13-4 21 3 10-2 15-16 15-19 0-21-5-20-52zm245-33c-38-19-83-35-100-35-28-1-29-2-14-14 16-12 16-14-5-34l-21-22h22c12 0 22-4 22-10 0-5 17-10 39-10 39 0 71 11 169 57 50 23 52 26 52 64v39h-47c-34-1-68-11-117-35zm63-29c-10-9-109-56-109-51 0 6 91 54 104 55 5 0 7-2 5-4z"/>
    <path d="M3195 4201c0-82 3-147 6-145s9 43 13 91c4 49 9 114 13 146 5 51 4 57-13 57-18 0-19-10-19-149zm-1375-13c0-7-5-20-10-28-9-13-11-13-20 0-7 11-10 8-10-17 0-17 5-35 10-38 6-3 10-2 10 4s10 16 23 22l22 12-20-22-20-23 30 4c26 3 30 8 33 36 2 19-3 38-12 47-18 18-36 19-36 3zm1463-154c-42-21-45-47-5-38 21 4 24 3 12-5-10-7-11-11-2-11 6 0 12-5 12-11 0-7 11-22 25-35s26-36 27-51c0-15 3-39 5-53 1-14 5-56 7-95 4-87 29-143 65-147 22-3 18-6-24-20-36-12-43-17-25-17 24-1 66-20 45-21-5 0-3-5 5-10 13-8 11-11-7-16-27-7-29-17-8-34 8-7 15-16 15-21s-7-9-15-9-15-6-16-12c-3-31 4-64 14-70 20-12-1-20-22-8-19 10-21 8-21-19 0-20-11-41-35-66l-35-36 30-26c42-35 37-64-14-78-50-14-86-56-86-100 0-18 11-64 24-102 13-37 41-114 61-171 37-104 57-222 46-275-6-28-8-25-29 34-20 56-62 136-62 118 0-4 9-27 21-53 25-57 51-179 43-200-9-24-22-10-35 37-11 40-56 127-66 127-11 0 11-89 37-152 15-38 26-68 24-68-10 0-74 146-74 167 0 13-3 23-7 23-5 0-9-37-11-81-2-81-16-129-39-137-19-5-17 98 3 193 9 43 13 88 9 103s-7 59-6 98c2 63-2 80-34 147-19 43-40 77-45 77-6 0-10-16-10-35 0-24 5-35 15-35s15-10 15-30c0-16 5-30 10-30 6 0 10-13 10-29s6-32 13-34c6-3 1-6-13-6-38-2-80-67-80-124 0-48 9-57 60-57 28 0 28 0 17-38-16-53-15-291 1-319 20-35 71-31 97 7 12 18 29 30 43 30 12 0 22 4 22 8 0 5 13 7 29 4 27-4 31-1 40 34 5 22 13 64 17 94 3 30 13 81 21 113 8 36 11 76 7 103-4 30-3 44 5 44 6 0 11 19 11 45 0 33 4 45 15 45s15 11 15 42c0 23 5 80 11 127 8 63 7 113-1 186-23 202-21 230 12 238 17 5 19 11 14 44-8 45-8 49-6 178 0 64-5 122-15 160-16 58-22 88-45 245-16 109-27 130-70 130-19 0-50-8-67-16zm-1463-13c0-5-18-27-40-49-45-45-53-75-17-70 12 2 26 13 32 25 5 12 17 24 27 26 13 4 18 15 18 41 0 20-4 36-10 36-5 0-10-4-10-9z"/>
    <path d="M3130 3925c0-19-9-58-20-87-29-76-26-198 5-198 7 0 18 21 24 47 15 59 31 42 31-34 0-39 4-53 14-53 24 0 26 15 10 71-18 59-20 82-23 207-1 75-3 82-21 82-16 0-20-7-20-35zm-1780-289c0-33 2-35 43-41 66-10 121-3 125 17 2 9-5 18-15 21-17 4-17 5 0 6 9 0 17 8 17 16 0 12-16 15-85 15h-85v-34zm1760-90c0-36-4-68-10-71-6-4-10-55-10-120 0-69-6-137-15-172-21-80-20-123 3-123 12 0 21 11 27 33 7 22 15 31 28 29 21-4 22 10 2 49-21 39-10 128 17 147 11 8 17 21 15 30-2 10 5 34 15 55 23 46 14 48-23 5l-28-33-1 28c0 15 10 37 21 48 18 18 20 25 10 40-15 25-15 26 12 33 21 6 21 7-8 24-29 16-29 17-7 20 12 2 20 7 17 12s-12 7-20 4c-8-4-18 1-21 10-13 35-24 13-24-48zm-1740-1c0-33 2-35 35-35 32 0 35-2 35-30s3-30 35-30c56 0 40-17-22-24-112-13-113-14-113-53v-36l60 6 60 7v-49c0-50 9-61 51-61 23 0 23-3 5-38-8-16-24-66-36-112-59-226-78-358-66-454 7-55 8-56 41-56 18 0 36 6 38 13 3 6 6-12 6-40 1-47 3-53 26-59 14-3 25-12 25-20 0-9 11-14 30-14 28 0 30-2 30-39 0-22 5-41 12-43 8-3 7-16-5-46-9-23-17-56-17-72 0-27 3-30 33-30s36 5 56 49c13 27 31 82 41 122 17 73 17 74 30 46 12-25 18-28 59-25 35 2 47 7 49 21 6 31-7 82-26 103-10 11-21 28-24 39s-9 28-13 38c-6 14-2 17 24 17 29 0 31 2 31 38 0 26-6 41-20 50-26 16-26 59 0 67 16 5 20 15 20 56 0 27-4 49-10 49-5 0-10 25-10 55 0 41-4 55-15 55-22 0-28-59-11-115 14-45 14-51 1-61-9-7-23-36-33-65-13-41-22-54-37-54-16 0-21-9-27-55-5-33-15-60-26-68-15-12-18-9-27 19-7 27-3 51 28 138 20 59 43 134 51 168 13 57 13 61-3 51-9-6-29-39-46-75-16-35-36-69-42-75-7-6-10-14-7-19s1-9-5-9c-5 0-8-9-6-19 2-11-7-29-23-42-15-13-20-16-13-6 10 12 10 17 1 17-8 0-10 11-6 33 13 78 35 156 56 202 13 28 24 70 26 95 1 45 17 111 36 159 6 14 12 42 14 61s6 46 9 60c4 21 4 22-5 7-9-13-15-15-30-7-13 7-21 7-25 0-6-10 1-14 18-11 5 1 6-3 2-9-5-8-11-8-20 0-10 8-27 4-71-19-57-31-98-39-108-22-3 5 1 28 9 51s12 46 9 51 4 9 15 9c12 0 21 4 21 8s26 14 58 21c46 10 61 18 74 41l16 28-39-2c-29-2-37 0-30 8 15 18-71 41-97 27-25-13-72-14-72-2 0 5-8 12-17 14-17 4-17 5 0 6 9 0 17 8 17 16 0 11-12 15-45 15-45 0-45 0-45-35zm296-280c6-24-35-122-58-136-5-3-10-10-11-15-3-14-25-13-31 2-3 8-1 14 3 14 5 0 9 15 9 34 0 37 14 69 45 104 26 28 35 28 43-3zm88 171c-14-16-6-68 10-63 13 4 21 77 9 77-4-1-13-7-19-14zm46-245c0-30 11-51 26-51 9 0 14 12 14 35 0 28-4 35-20 35-13 0-20-7-20-19zm1380-498c0-13 5-23 10-23 13 0 13 11 0 30-8 12-10 11-10-7zm22-83c0-19 2-27 5-17 2 9 2 25 0 35-3 9-5 1-5-18zm-762-345v-35h55c52 0 55-1 55-25s3-25 60-25c33 0 60 4 60 10s16 10 35 10c33 0 35 2 35 35 0 34-1 35-40 35-22 0-40-4-40-10 0-5-13-10-30-10-25 0-30 4-30 25 0 25-1 25-80 25h-80v-35zm-155-56c-79-41-85-47-85-84 0-33 2-35 34-35 18 0 38 6 44 13s34 24 62 37c45 21 50 27 50 57 0 31-2 33-33 33-18 0-50-9-72-21zm528-236c-7-2-13-15-13-27 0-19 5-22 30-21 59 4 86 56 28 54-18 0-39-3-45-6z"/>
  </g>
  <g fill="#211F27" style="transform:none">
    <path d="M2480 4705v-35h110v70h-110v-35zm-213 9c-48-8-96-18-107-24-10-5-30-10-44-10s-26-4-26-9-27-12-60-16l-60-7v-71l62 7c35 4 65 11 68 15s34 13 70 19c36 7 94 19 130 27s82 15 103 15c36 0 37 1 37 35 0 35 0 35-42 34-24-1-83-7-131-15zm423 3c0-9 8-18 18-20 16-4 16-5 0-6-37-2-18-29 22-33 35-3 39-1 34 15s-1 18 33 12c82-14 171-49 241-96l72-49v30c0 23-4 30-20 30-11 0-20 7-20 15s-7 15-15 15-15 4-15 10c0 5-12 13-27 16-16 4-30 10-33 14-11 16-140 49-212 56-67 5-78 4-78-9z"/>
    <path d="M2835 4640c11-5 27-9 35-9 9 0 8 4-5 9-11 5-27 9-35 9-9 0-8-4 5-9zm115-35c0-8 11-17 25-21 14-3 25-10 25-15s9-9 20-9 20-7 20-15c0-10 10-15 28-15h27l-25 21c-14 11-46 31-72 45-38 19-48 21-48 9zm180-74c0-5 8-12 18-16 16-7 15-8-3-16s-17-9 4-5c16 3 29-1 37-12 12-15 13-12 14 21 0 36-1 37-35 37-19 0-35-4-35-9zm-1379-128c0-25 1-26 9-8 12 27 12 35 0 35-5 0-10-12-9-27zm1441-380c2-17 10-29 21-31 13-3 17 3 17 27 0 25-4 31-21 31-16 0-20-5-17-27zm-839-2172c-57-10-73-26-73-72 0-38 1-39 36-39 23 0 41-6 49-17 11-15 34-18 159-19l146-2v33c0 38-35 71-104 100-45 19-153 27-213 16zm189-327c-7-12-29-18-83-22-41-2-77-10-81-16s-8-26-8-43c0-31 2-33 35-33 32 0 35-2 35-30s3-30 35-30 35 3 35 28c0 24 7 32 43 47 61 27 77 44 77 82 0 32-1 33-40 33-26 0-42-6-48-16z"/>
    <path d="M2220 1360c0-17 7-20 51-20 28 0 59-5 69-10 28-15 72-95 68-122-3-18-7-13-18 22-7 25-18 50-23 55-7 7-7 3-3-10 5-11 11-44 15-73 7-45 5-55-8-60-27-11-191-4-207 9-8 7-13 28-13 53 2 34 3 36 6 11 7-47 30-65 75-61 21 2 41 6 44 9 9 9-16 47-31 47-8 0-17 11-21 25-3 14-12 25-19 25-8 0-15 8-18 18-3 14-6 13-15-8-10-24-11-24-11-2-1 20-5 22-66 22-49 0-65-3-65-14 0-7 9-16 19-19 17-4 19-11 14-48-3-24-14-64-24-88-20-45-27-149-9-121 5 8 10 26 10 40 1 23 2 23 11 7 6-10 12-29 14-42 3-28 34-80 42-71 3 3 0 12-7 21-17 20-7 29 23 22 13-4 33-24 46-47 27-49 50-64 119-80 40-9 68-9 115-1 34 6 81 13 104 16 44 5 83 23 83 39 0 9-122 0-202-15-36-6-59-4-100 9-46 16-56 24-75 63-12 24-25 55-28 69l-6 25 86-4c66-2 91 1 110 13 13 9 31 16 39 16s16 10 18 22c5 33 27 34 38 1 14-40 57-56 139-51l68 3-5-50-4-50 30 28c23 22 32 26 38 15 12-18 11-51-1-60-6-5-6-11 2-19 14-14 7-36-20-66s-17-39 16-13c21 17 28 36 42 115 20 107 17 261-4 274-8 5-10 18-5 34 4 17 2 27-5 27-6 0-11 9-11 19 0 38-11 51-46 51-19 0-34 5-34 10 0 6-27 10-60 10-53 0-60-2-60-20 0-17 8-19 72-22 68-3 73-5 89-33 22-39 34-79 21-71-5 3-12 19-15 35-10 47-32 61-95 60-45 0-53-3-37-10 26-13 56-65 49-84-4-9 0-23 7-32 13-15 11-16-13-9-28 6-33 1-22-28 4-11 19-16 46-16 50 0 78 15 79 43 1 16 3 17 6 5 2-9-1-26-7-37-9-17-21-21-63-21-47-1-50-2-33-15 19-14 18-15-5-23-30-11-52-4-45 14 4 10-7 16-35 20-22 4-43 13-46 21-4 10-15 12-37 8-26-5-29-4-15 7 9 7 19 27 23 43 5 23 4 27-4 15-9-11-13-12-17-2-2 6-11 12-18 12-8 0-17 15-20 34-4 19-15 43-26 55-10 11-19 24-19 29 0 12-49 22-106 22-37 0-44-3-44-20zm-5-180c8 0 15-4 15-10 0-5-3-10-7-10-11 0-43 33-43 44 0 6 5 3 11-6 5-10 17-18 24-18zm115-75c0-15-43-12-48 3-3 10 4 13 22 10 15-2 26-7 26-13z"/>
    <path d="M2220 1320c0-5 16-10 36-10 21 0 33 4 29 10-3 6-19 10-36 10-16 0-29-4-29-10zm282-132c2-12 9-23 15-26 19-6 29 28 12 39-23 14-31 10-27-13zm-272-402c0-14 5-28 10-31 6-3 10 5 10 19s-4 28-10 31-10-5-10-19zm410 14c-8-5-11-12-8-15 4-4 17 0 30 9 24 17 5 23-22 6zm-102-57c-9-2-19-11-22-19-4-11-2-12 12-5 49 28 52 35 10 24z"/>
  </g>
  <g fill="#301B26" style="transform:none">
    <path d="M2329 4721c-65-9-193-37-259-56-25-8-65-17-90-20-25-4-69-14-97-23-48-14-53-18-53-44 0-27 1-28 23-13 22 14 23 13 22-10 0-13-6-30-12-37-7-6-13-15-13-19 0-3 82 20 183 53 100 32 233 68 295 78 258 45 490 11 735-106 69-33 131-49 74-19-16 8-45 28-65 44-64 50-125 75-179 74-13-1-21 3-18 7 5 9-85 31-96 24-4-2-10 3-13 12-8 22-8 22 14 26 14 2 17 7 10 18-7 12-45 15-207 16-109 2-223-1-254-5z"/>
    <path d="M2998 4618c226-142 249-185 61-112-52 20-139 45-194 55s-109 20-120 23c-81 17-139 21-275 19-131-1-177-6-298-32-78-17-175-44-215-61-39-17-83-35-96-41-13-5-21-12-18-15s44 10 91 29 86 31 86 27-30-20-67-35c-113-44-112-43-111-130 0-59 3-77 16-84 15-8 13-12-11-31-15-12-27-31-27-43 0-29-15-51-29-43-7 5-11-1-11-15 0-12-7-31-17-41-9-10-11-18-5-18s25 18 42 40c18 23 35 38 38 36 3-3-3-14-12-25-11-12-14-21-7-26 14-8 14-51 0-78-6-12-27-38-46-58-28-29-33-41-27-63 5-20 12-26 34-26s30 7 45 41c11 22 34 53 53 69 32 26 34 32 29 70s-3 43 33 72c22 17 40 40 42 52 4 25 52 43 153 56 39 5 81 12 95 15 19 5 33-2 61-28 23-21 58-41 91-51 59-17 122-58 153-99 11-15 28-27 37-27 11 0 18-8 18-19 0-17 10-20 85-26 46-4 99-5 117-1 37 7 88 55 88 83 0 54 21 92 65 118 43 24 45 28 45 70 0 25 5 45 10 45 6 0 10-20 10-43 0-53 22-77 70-77h33l-22 24c-23 24-21 46 2 46 7 0 29-11 50-25 35-24 44-22 37 10-1 6-1 43-1 84 1 63-1 72-13 62-17-14-57-6-108 22-55 30-49 46 16 41 29-2 65-8 79-13s28-7 31-4c3 4 6-18 6-48 0-68 8-99 26-99 11 0 14 21 14 98 0 124-5 142-38 142-14 0-48 17-76 39-60 45-128 81-153 81-9 0 6-15 35-32zm-938-133c-14-8-29-14-35-14-5 0 1 6 15 14s30 14 35 14c6 0-1-6-15-14zm890-59c14-8 63-35 110-60 93-50 82-63-23-26-31 11-61 20-67 20s-40 14-75 32c-44 21-61 34-53 40 20 12 81 9 108-6zm-850-115c0-9-60-40-144-75-92-38-64-3 39 48 70 35 105 44 105 27z"/>
    <path d="M1770 4505c0-15-6-25-14-25s-19-14-25-30c-5-17-17-33-26-36-10-4-15-19-15-43 0-21-11-66-25-101s-25-76-25-91c0-68-102-396-147-471l-22-38h-151v-29c0-35 7-40 68-51 46-8 46-8 10-9s-38-2-38-36c0-19 5-35 10-35 6 0 10-13 10-28 0-20 7-32 22-40l23-11-23-7c-18-5-22-12-19-43l2-36 54-3c37-2 57 1 62 10 14 21 10 36-8 41-10 3 30 5 89 6 99 1 139 11 102 25-18 7-15 46 4 61 25 20-38 16-66-4-41-29-71-35-78-17-4 10-20 16-43 17-30 1-27 3 19 10 30 4 62 6 71 3 9-2 21 2 28 9 16 20-47 37-145 39l-79 1 85 7c47 4 98 12 113 18 16 7 49 12 75 12 38 0 43 2 31 13-9 6-22 31-29 55-13 42-11 76 20 266 4 28 5 59 1 70-9 26-8 36 6 61 10 18 21 70 29 135 2 14 12 57 23 95 11 42 15 74 10 81-10 12 15 99 36 124 7 8 15 23 18 33 5 13 1 17-18 17-20 0-25-5-25-25zm-130-846c0-17-4-20-28-14-16 3-55-1-87-10-33-8-71-15-85-14s3 7 38 15c34 7 74 20 90 28 41 23 72 20 72-5zm1558 511c-1-60-2-124-3-141-1-20 4-33 13-37 14-5 98 9 132 22 21 8 37-32 50-124 6-41 16-104 21-139s16-79 25-97 13-38 9-43c-3-6 1-11 9-11 22 0 25 10 14 65-5 28-15 95-23 150-34 241-35 245-65 245-15 0-49-7-75-15-27-8-50-13-51-12-2 1-6 57-10 125-6 110-9 122-25 122-17 0-19-10-21-110zm-61-27c-11-10-8-73 3-73 6 0 10 7 10 15s7 15 15 15c16 0 19 9 9 34-6 16-26 21-37 9zm-23-283c-4-16-13-35-20-41-9-7-14-33-14-74 0-92 9-125 33-125 18 0 19 4 13 68-5 54-3 77 14 120 25 66 25 82 0 82-15 0-22-9-26-30zm-251 8c-25-12-26-17-17-95 7-52 7-53 40-53 24 0 34 5 34 15 0 8 9 20 20 27 20 13 28 67 14 102-7 19-57 20-91 4zm237-317c0-43-6-70-21-96-20-33-21-44-14-133 4-53 7-118 6-144-2-36 1-48 12-48 23 0 37 71 37 193 0 109 1 117 22 132 20 13 21 18 9 37-11 18-11 22 4 30 14 9 15 12 2 26-8 10-18 27-21 40-4 12-14 22-22 22-11 0-14-15-14-59zm343 22c-33-6-28-20 7-20 18 0 30 6 30 14 0 7-3 12-7 12-5-1-18-4-30-6zm-602-37c-26-14-124-196-187-344-34-82-35-87-32-200 3-130 4-131 74-117 23 4 34 11 34 23 0 19 25 44 53 55 9 3 25 22 34 42 9 19 20 35 25 35 17 0 39 65 57 172 11 62 30 145 41 183 31 98 33 111 26 140-6 22-11 25-54 25-26-1-58-7-71-14zm628-1c-1-5-1-13 0-17 0-4-8-12-19-18-17-9-18-14-8-35 9-19 9-28 0-37-16-16-15-59 2-80 20-27 26-22 27 25 0 23 4 65 9 92 4 28 4 57-1 65s-9 11-10 5z"/>
    <path d="M3138 3374c-5-4-8-21-8-38 0-21 3-27 11-19 6 6 9 23 7 38s-6 23-10 19zm-1361-86c-2-18 2-45 9-60 16-31 22-59 23-105 1-26 5-33 21-33 18 0 20 6 19 73-1 94-18 151-46 155-17 2-22-3-26-30zm-307-8c0-17 7-41 16-54 14-23 13-35-20-171-39-160-45-215-21-215 8 0 17 15 22 38 10 50 10 52 13 55 1 1 4 11 5 22 2 11 11 47 20 80s18 67 20 75 4 15 5 15 3 7 5 15 15 44 30 79c14 35 24 65 21 68-2 2-19 0-38-5-39-10-58-6-58 14 0 8-4 14-10 14-5 0-10-14-10-30zm1911 23c-2-22 22-63 36-63 9 0 13 13 12 38 0 32-1 34-9 15-5-13-12-23-15-23s-10 10-15 23c-5 12-9 17-9 10zm-1726-143c-38-76-56-125-76-210-7-30-16-59-21-65-4-5-8-19-8-31 0-13-4-26-10-29s-10-17-10-31c0-13-3-24-8-24-4 0-12-17-19-37-6-21-15-46-18-55-5-13-2-18 10-18s15-5 11-16c-4-10-9-50-13-90l-6-74h27c14 0 26-4 26-10 0-5 7-10 15-10s15-7 15-15c0-10 11-15 35-15 27 0 35 4 35 18 0 9 6 27 13 38 38 65 48 86 40 81-22-14-38 13-37 63 0 30-3 49-9 47s-23-46-38-98c-18-61-28-84-28-64-1 20-4 26-9 17-5-7-16-10-26-6-14 6-16 14-10 53 4 25 8 57 10 71 8 59 67 258 99 335 19 46 35 99 35 118s6 55 14 80c21 69 1 57-39-23zm1465-4c0-8 5-18 10-21 6-3 10 1 10 9s-4 18-10 21c-5 3-10-1-10-9zm-1313-178c-6-21 0-55 18-115 5-17 2-28-13-40-11-10-23-37-27-59-6-37-3-44 19-62 38-30 32-34-20-12-25 11-50 18-55 14-5-3-9-41-9-84s-7-113-15-156-13-79-11-81c1-2 17 0 34 3 22 5 32 12 32 25 0 24 5 24 30-1 13-13 33-20 60-20h40v43c0 26-8 51-20 67-11 14-20 31-20 38 0 6-4 12-8 12-8 0-32 65-32 84 0 3 14 6 30 6 28 0 30 3 30 35 0 29-4 35-20 35-31 0-36 28-10 55 23 24 23 25 10 130-9 70-17 105-25 105-7 0-15-10-18-22zm-33-400c-3-5-1-8 3-8 5 0 10-10 10-22 1-13 10-29 20-36s17-22 15-34c-3-14 0-18 9-13 8 5 10 4 5-3-13-21-31-13-50 23-11 19-22 35-26 35-8 0-10 8-16 85l-4 60 19-40c11-22 17-43 15-47zm1476 403c0-26 34-121 43-121 14 0-2 71-24 105-10 17-19 24-19 16z"/>
    <path d="M1695 2848c-43-106-54-148-40-148 17 0 79 170 67 182-6 6-16-8-27-34zm1402-85c-4-3-7-36-7-72l1-66 25 28c20 24 27 27 39 17 13-11 15-6 15 28 0 57-8 72-39 72-15 0-31-3-34-7z"/>
    <path d="M3151 2628c0-16-10-37-21-48-25-25-53-16-47 16 3 20 0 24-20 24-22 0-24-3-21-42 3-43 3-43 46-46 33-2 42 0 42 12 0 10 9 16 25 16 26 0 32 9 16 26-5 5-11 23-14 39-4 30-4 30-6 3zm-1554-5c-4-3-7-20-6-37l1-31 8 35c9 36 8 45-3 33zm1315-30 3-38h100l3 38 3 37h-112l3-37zm299-113c-1-26 20-90 29-90 6 0 3 17-4 38-8 20-17 44-19 52-5 13-6 13-6 0zm-1544-61c-20-12-23-39-3-39 7 0 16 10 19 22 8 27 6 29-16 17zm716-118c-45-12-82-37-95-67-6-13-16-24-22-24-7 0-18-9-26-20s-19-20-25-20c-21-1-75-79-75-109 0-29 3-31 34-31 26 0 41 8 63 33 16 17 45 41 64 51 19 11 36 22 39 26 15 17 125 40 197 40 65 0 89-5 129-25 27-14 61-25 76-25 25 0 27 4 33 54 4 30 4 59 1 64s-27 20-53 32c-40 19-69 23-178 26-71 2-145 0-162-5zm165-38c-16-2-40-2-55 0-16 2-3 4 27 4s43-2 28-4zm80-50c-10-2-26-2-35 0-10 3-2 5 17 5s27-2 18-5zm-248-373c0-21 10-24 48-14 36 10 27 34-13 34-28 0-35-4-35-20zm10-215c0-34 1-35 40-35s40 1 40 35-1 35-40 35-40-1-40-35zm-130-80c0-35 0-35 45-35s45 0 45 35 0 35-45 35-45 0-45-35zm228 23c-21-7-28-16-28-37 0-25-2-26-41-23l-41 4 4-41c3-35 1-41-15-41-15 0-18-7-15-37 3-36 5-38 41-41 21-2 37 1 37 7 0 15 19 14 36-3 16-17 19-46 4-46-5 0-10-11-10-25 0-20-6-27-29-31-27-6-28-7-18-40 16-53 44-42 71 27 36 94 43 102 111 103 92 2 109-7 129-59 19-48 31-56 41-26 3 10 13 18 23 17 12-1 18 8 20 27 3 25 1 27-33 27-33 0-43 4-80 38-8 7-43 12-90 12-73 0-76 1-73 22 2 15 14 24 43 32 36 10 40 15 43 48 2 22-3 41-12 51-9 9-16 23-16 31 0 19-57 21-102 4zm97-78c-10-11-22-20-26-20-5 0-1 9 8 20 10 11 22 20 27 20s1-9-9-20zm-85-35c0-8-9-15-20-15-25 0-26 17-2 23 9 3 18 5 20 6 1 0 2-6 2-14zm-6-66c-8-14-24-10-24 6 0 9 6 12 15 9 8-4 12-10 9-15zm-313-20c-22-7-37-19-43-37-9-24-15-27-49-24-36 4-39 2-39-22 0-20 5-26 23-26 17 0 19-2 7-10-23-14-6-22 34-15 28 6 37 13 46 40 6 18 17 39 25 45 11 9 11 5-2-20-8-18-18-51-20-74-6-53 20-81 67-71l31 7-21 34c-28 44-23 73 17 100 38 25 33 34-16 35l-36 1 30 9c17 5 47 7 68 3 33-5 37-3 37 15 0 19-6 21-62 20-35 0-78-5-97-10z"/>
    <path d="M2372 1295c29-44 38-44 38 0 0 32-2 35-30 35h-30l22-35zm250 23c2-6 20-22 40-34 35-22 36-23 41-3 3 11-1 26-10 34-17 18-77 21-71 3zm-492-136c0-38 28-62 71-61l34 1-31 7c-46 11-54 19-54 52 0 16-4 29-10 29-5 0-10-13-10-28zm322-44c2-17 10-24 30-26 25-3 27-1 19 20-4 13-18 24-30 26-19 3-22-1-19-20zm-52-10c0-12-3-18-6-15-9 8-44-11-44-23 0-6 16-10 35-10 33 0 35 2 35 35 0 19-4 35-10 35-5 0-10-10-10-22zm269-98c-7-27-18-50-25-50s-35-14-62-31c-60-37-98-46-219-55-67-5-93-11-93-20 0-29 79-28 264 2 34 5 112 53 143 86 11 13 27 44 36 71l16 47h-24c-19 0-25-8-36-50zm-489-98c0-13 30-52 41-52 5 0 9 14 9 30 0 25-4 30-25 30-14 0-25-3-25-8z"/>
  </g>
  <g fill="#3B1E2B" style="transform:none">
    <path d="M3176 4502c19-13 25-42 9-42-8 0-15-4-15-10 0-5 7-7 15-4 10 4 15 0 15-15 0-14 5-19 15-15s15 20 15 50c0 43-1 44-32 44-18 0-28-4-22-8zm-1606-51c-21-41-1-71 49-71 27 0 27-17-4-113-16-50-25-101-25-143 0-52-10-96-51-217-55-162-69-196-92-215-12-10-16-9-21 3-4 10-19 15-50 15-37 0-45-3-50-22-16-62 0-93 50-101l29-4-29-2-29-1 7-62c3-34 11-67 16-72 17-17 12-24-25-36-63-21-91-90-36-90 28 0 30-3 33-42 3-43 3-43 44-46s42-3 48-50-5-204-24-337c-13-94-12-205 1-282 11-60 12-63 40-63s28-1 31-62c3-60 4-63 31-66 23-3 27-8 27-36 0-25 6-35 25-44 20-9 25-19 25-46 0-29 4-35 28-39 15-3 39-9 54-13 43-10 92 4 148 42 47 32 52 34 73 19 23-16 97-20 112-6 6 5 28 6 49 3 38-7 39-8 22-25-10-9-25-21-35-26-21-12-71-108-71-139 0-23-14-30-25-12-7 12-85 14-85 2 0-13 105-73 108-62 2 5 20 10 40 10 23 0 44 8 59 22 13 12 23 16 23 10 0-7-4-12-10-12-5 0-10-16-10-35 0-33 2-35 35-35 24 0 35 5 35 15 0 8 4 15 9 15s33 28 61 62c59 71 94 98 128 98 17 0 22 6 22 25s-4 23-17 18c-34-12-98-55-137-92l-40-36 34 40c18 22 44 47 56 55 13 8 24 18 24 22 0 5 6 8 13 8 6 0 19 13 29 29 30 53 68 65 203 65 103-1 127-4 168-24 58-27 67-40 30-40-38 0-73-10-73-21 0-10 37-49 46-49 3 0 27-22 52-48 56-57 93-123 74-130-6-2-12-10-12-18 0-17 5-17 31-4 14 8 19 7 19-1 0-7 8-5 20 6 27 24 26 76-2 131-12 24-19 47-15 50 3 4 54-5 111-20 131-32 196-34 203-6 4 15 14 20 40 20 94 0 161 106 143 225l-7 50-2-67c0-37-5-69-10-73-13-7-45 39-87 129-20 42-38 76-39 76-8 0 16-65 39-107 29-52 33-81 11-89-8-4-12-11-8-17s1-7-6-3c-7 5-10 15-7 23s2 11-3 8-12 3-14 12c-3 10-5 5-6-13 0-16-12-45-25-63l-24-33-14 24c-19 34-16 197 6 291 14 58 15 82 7 90-6 6-12 22-12 36-1 24-2 24-8-4-7-36-54-66-72-48-10 10-4 25 25 68 32 49 39 55 53 43 27-22 10 86-26 162-33 71-33 66-27 415 0 39-3 80-8 92-13 31 1 72 35 104 27 25 28 29 14 43-19 18-12 36 13 36 14 0 14 3-4 18-13 11-21 30-23 53-1 19-6 51-11 70-14 47-12 100 3 118s33 75 42 134c4 27 2 42-10 53-12 12-14 27-9 67 4 29 13 59 20 68 18 21-1 47-72 100-30 22-54 46-54 54 0 23 40 18 85-10 22-13 43-25 48-25 4 0 7 32 7 71 0 52-3 70-12 67-7-3-14-15-16-27-5-32-22-35-88-12-32 12-66 21-76 21-22 0-40-42-32-75 5-20-1-27-41-50-33-20-48-35-52-56-3-16-9-29-13-29-3 0-5-13-2-29 2-16-1-31-6-35-6-4-8 3-6 16 4 21 3 21-7-2-6-14-14-32-19-40-9-20-70-35-104-26-15 4-55 33-88 66-34 33-64 57-67 55-2-3 5-15 17-28 44-46 21-44-26 2-30 30-67 55-98 65-92 33-115 46-108 59 4 6 4 9 0 5-5-4-20 4-35 18-19 18-35 24-61 21-20-2-41-6-48-11-6-4-12-4-12 0 0 3-6 2-12-3-7-5-29-10-48-11-60-4-133-24-198-53-34-16-67-29-72-29s-18-9-29-21-24-18-30-14c-7 3-11-2-11-15 0-21 1-20 33 4 37 28 98 56 123 56 11 0 1-15-30-43-25-24-47-51-47-60-4-46-2-52 11-49 8 1 0-9-18-24-18-14-43-47-57-72-13-26-24-40-25-32 0 13-1 13-10 0-14-22-11-57 9-120 15-46 22-55 42-55 23 0 24 3 25 80 2 98 23 139 98 190 28 20 73 55 100 79 45 41 48 47 44 85l-3 40 25-24c14-14 34-25 44-25 27 0 75-33 124-84 35-37 45-57 56-109 17-78 39-128 75-164 32-32 47-70 54-131 3-28 20-66 48-108 32-50 39-68 29-74s-11-25-6-79c11-108 21-131 60-131 25 0 33 6 42 28 15 39 31 92 39 130 4 17 11 32 16 32s9 7 9 16 11 42 24 73 28 65 32 76c7 17 9 16 12-11 3-29-61-239-79-258-5-6-9-16-9-23s-11-36-23-65c-57-128-119-360-173-643-15-82-32-156-38-163-14-19-95-58-136-66-19-4-46-11-60-15-14-5-49-14-79-21-29-7-64-18-78-25-33-17-63-8-63 19-1 12-28 49-70 90-38 38-83 95-99 126l-31 58 24 6c22 5 23 9 24 103 1 128-13 193-40 193-17 0-19-5-14-27 19-85 19-94-1-116-36-39-36-66 0-100 30-28 31-29 7-22-14 4-38 14-54 22-36 18-46 7-45-52l1-40 12 34 12 34 22-51c12-28 22-54 22-57 0-4 16-34 35-66 52-89 44-105-24-44-21 19-46 35-55 35-11 0-16 9-16 32 0 49-8 29-26-63-14-77-52-185-60-176-3 2 3 21 12 43 9 21 20 54 24 71 7 29 6 32-10 23-10-6-21-10-24-10-15 0-4 55 19 98 25 46 25 47 5 56-26 12-27 64 0 141 23 67 23 65 12 65-14 0-37-59-67-172-16-60-33-108-38-108s-7 6-4 14c4 10 0 12-14 9-12-3-19 0-19 8 0 11-2 11-10-1-13-20-12-9 5 89 15 85 55 242 82 321 28 82 32 100 23 105-11 7-37-50-79-173-17-51-49-129-70-175l-38-82-7 52c-7 44-2 104 20 238 3 17 17 75 31 130 37 147 40 200 13 237-21 29-22 41-4 102 5 16 2 17-34 11-24-4-49-2-59 4-16 9-16 10 5 11 15 0 26 9 32 26 14 37 13 43-15 56-32 14-32 28 0 28 18 0 25 5 25 19 0 15-8 21-37 24l-38 4 43 1c39 2 43 4 41 25-2 12 0 28 4 35 6 9-3 12-35 13-84 2-97 17-16 18l78 1 25 40c14 22 25 43 25 48s15 48 34 95c19 48 33 87 31 87s3 24 11 53c8 28 21 75 29 102 7 28 16 68 18 90 3 22 16 70 30 107 14 36 23 76 20 88-4 14 1 26 14 35 11 8 23 24 26 35 4 16 0 20-18 20-13 0-27-4-30-10-9-14-55-13-55 1 0 35-73 51-90 20zm1480-399c27-13 36-24 38-47 2-16 9-33 15-37 8-5 5-20-10-50l-22-43v39l-1 38-67-4c-38-3-76-9-86-13-17-7-18-6-6 14 12 18 23 21 76 21h63v70h-62c-56 0-60 1-42 15 25 19 61 18 104-3zm0-218c-20-31-24-57-31-195-6-113-13-167-24-187-15-25-15-26-8-2 16 51 8 163-15 207-34 66-30 87 35 154 31 32 58 59 60 59 3 0-5-16-17-36zm-135 6c-3-5-2-10 3-10 17 0 8-26-15-43-19-15-23-15-23-3 0 8 5 18 10 21 17 10 11 25-7 19-10-3-7 2 7 10 30 18 33 19 25 6zm16-332c2-16 1-19-23-98-20-66-34-132-44-205-10-70-25-116-44-135-10-10-26-32-34-49-9-16-22-33-28-37-9-5-8-1 1 12 8 10-11-7-42-38s-59-53-62-48c-2 4-3 48-1 98 4 98 29 175 100 301 19 34 35 64 35 66 2 23 64 124 83 132 31 16 58 16 59 1zm272 817c0-44 2-61 4-37 2 23 2 59 0 80-2 20-4 1-4-43z"/>
    <path d="M1960 4341c-54-11-64-20-46-40 14-16 12-20-26-49-62-48-19-40 55 10 72 49 91 69 74 80-7 4-14 7-17 7-3-1-21-4-40-8zm1388-278c-10-2-18-14-18-25 0-16 5-19 25-16 13 3 22 1 19-3-3-5-1-17 4-26 10-19 16-53 33-198 10-91 46-203 59-188 8 9-34 364-51 426-10 38-22 43-71 30zm-1677-175c-23-77-33-145-24-163 8-14 13-4 21 46 24 142 26 188 3 117zm429-3c0-19 8-51 18-71 13-28 14-38 5-41-16-6-17-80-3-117 8-22 16-26 51-26h41l-4 63c-2 44 0 68 9 76 7 6 13 32 13 57 0 60-32 94-90 94-39 0-40-1-40-35zm1073-230c0-27 2-38 4-22 2 15 2 37 0 50-2 12-4 0-4-28zm-1083-109c-32-69-35-94-21-159 27-119 41-216 42-290 0-45 6-104 12-132 12-48 13-50 50-53 24-2 39 1 41 10 2 7 12 40 21 72 16 52 17 86 11 290-9 294-17 326-88 326-38 0-39-1-68-64zm1355 25c-17-7-17-8 8-13 19-4 27-1 27 8 0 15-6 16-35 5zm15-64c-18-15-25-138-10-168 9-16 7-19-10-19-13 0-20-7-20-20 0-10-6-23-14-27-12-7-12-15 3-58 10-27 26-66 35-85 18-38 18-38-1 52-3 17 4 44 21 77 23 47 25 61 23 156-1 58-4 105-7 105-3-1-12-6-20-13zm-1704-73c-9-25-7-64 4-64 6 0 10-9 10-21 0-11 8-39 19-62 10-23 22-57 26-74 4-20 13-33 22-33 14 0 15 13 10 93-3 50-11 107-17 125-17 46-62 68-74 36zm1400-39c-18-23-26-45-24-62 3-25 4-26 20-10 9 10 15 24 12 31-3 8 2 28 11 45 21 41 14 39-19-4zm226-85c0-19 2-27 5-17 2 9 2 25 0 35-3 9-5 1-5-18zm-262-152c0-9 5-20 11-23 17-11 20 0 4 21-13 17-14 17-15 2zm-1304-30c-3-13-6-44-6-70 0-41 3-48 20-48 18 0 20 7 20 70 0 53-3 70-14 70-7 0-16-10-20-22zm1454-198c0-11 20-79 44-152 40-118 61-219 68-328 2-25 11 2 30 90 41 188 43 201 26 195-10-4-18 7-27 37-7 24-19 54-26 68-12 22-13 17-10-50 1-41 6-92 10-112 4-23 3-38-2-38-10 0-30 57-79 223-27 88-34 103-34 67zm168-75c7-37 22-41 22-6 0 20-5 31-14 31s-12-8-8-25zm-950-642c-10-2-18-11-18-19 0-10 13-14 50-14 36 0 50 4 50 14 0 20-41 30-82 19zm-38-688c0-33 2-35 35-35s34 1 33 35c-1 33-3 35-35 35-31 0-33-2-33-35zm28-92c-24-6-23-19 2-26 11-3 20-10 20-16 0-15-27-14-33 2-3 7-6 5-6-5-1-14 7-18 34-18 33 0 35 2 35 35 0 36-7 40-52 28zm-108-48c0-33 2-35 35-35s35 2 35 35-2 35-35 35-35-2-35-35zm80-131c0-44 18-42 37 4 13 31 12 32-12 32-22 0-25-4-25-36zm180-274c0-5-7-10-15-10s-15-3-15-7c0-5-20-16-45-26-31-13-45-25-45-38 0-34 47-19 138 43 50 34 53 48 12 48-16 0-30-4-30-10z"/>
  </g>
  <g fill="#452433" style="transform:none">
    <path d="M1840 4590c0-27-3-30-30-30-23 0-30-4-30-20 0-11-4-20-10-20-5 0-10-7-10-15s-3-15-7-15c-5 0-16-14-26-31-15-27-21-30-45-24-15 3-28 11-30 16s-10 9-18 9-14 5-14 10c0 25-38 7-53-25-20-43-21-45-4-45 7 0 18-9 25-20 10-17 8-30-13-82-17-41-25-81-25-119s-5-63-15-73c-8-8-15-24-15-36 0-27-40-162-51-174-5-6-9-18-9-28s-6-18-14-18-16-16-20-40c-4-26-11-40-21-40-8 0-15-7-15-15 0-10-10-15-29-15-26 0-29-4-34-41-6-45 1-109 13-109 4 0 5-39 2-87-4-79-7-89-33-116-21-20-29-38-29-63 0-30 3-34 25-34s25-4 25-34c0-24 7-40 23-53 21-16 23-24 19-79-4-54-2-64 19-83 22-21 24-29 22-117-2-74 0-94 11-94 7 0 16 10 20 23 12 42 28 282 22 332-3 34-1 56 9 68 16 22 10 47-11 47-8 0-28-10-43-21-28-20-51-19-51 2 0 6 9 28 19 49 21 44 16 48-38 29-18-6-34-9-37-6s17 12 44 21c45 15 50 20 54 51 2 22-2 40-11 50-12 12-12 17-3 27 16 16 15 28-3 28-8 0-15 5-15 10 0 6 13 10 29 10 24 0 29 4 26 20-2 11 1 22 7 26 15 9-11 24-44 24-26 0-58 22-58 40 0 21 42 21 61 1 46-49 85-13 135 120 58 156 83 251 85 320 1 39 14 104 30 156 15 50 26 99 25 109-2 15 5 20 33 24 32 5 40 12 76 77 50 87 69 109 101 117 38 10 30 36-11 36-32 0-35-2-35-30zm1324-46c-5-18-1-30 15-45 11-11 21-26 21-34 0-32 28-13 34 23 12 75 9 82-29 82-29 0-36-4-41-26zm36-166c0-29 5-128 11-221l12-167 36 6c20 4 60 15 90 25 30 11 55 19 57 19 1 0 2-10 2-22 0-40 23-153 33-163 7-7 9-2 5 15-3 14-8 48-11 75-4 28-11 67-16 88-8 32-14 37-39 37-15 0-30-4-32-8-1-5-21-12-44-15l-41-7-12 113c-6 62-11 150-11 195 0 75-2 82-20 82-17 0-20-7-20-52zm-1148-135c-31-6-38-28-17-59l17-26-53-47c-28-25-74-62-102-81-29-21-59-54-74-80-21-40-24-53-18-112 5-52 3-68-8-75-10-5-13-19-10-40 4-26 10-33 27-33 28 0 43 11 48 35 9 51 132-188 148-290 5-27 10-127 13-221l4-172-25 30c-22 25-30 29-71 26l-46-3-3-62c-2-40 3-80 16-117 15-44 16-56 5-56-7 0-13-4-13-10 0-5-4-10-8-10-12 0-32 108-32 173 0 42-4 57-14 57-29 0-35-113-11-193 14-47 12-94-7-129-6-12-3-26 8-43 23-35 13-40-41-19-53 20-65 12-64-41 1-29 1-29 12 8l12 37 53-99c37-67 75-120 121-167 70-73 88-117 57-143-22-18-50-6-101 45-25 24-47 44-50 44-11 0-4-24 11-35 14-10 12-15-17-45-55-54-149-85-149-49 0 5 11 53 26 106 14 54 27 136 29 183s2 69-1 50c-15-126-30-194-56-255-31-71-51-105-42-67 7 26-10 59-36 67s-25 21 11 145c41 140 50 180 47 199-2 9-18-35-36-98s-38-126-45-140c-15-30-47-37-54-10-3 10-12 19-20 19-11 0-13-12-11-52 3-46 6-53 26-56 19-3 22-10 22-43 0-81 38-121 160-169 106-41 250-110 250-120 0-4 19-15 43-25 23-9 61-26 85-37l43-20 64 69c35 37 64 74 65 81 0 6 7 12 15 12 9 0 18 6 21 14s16 17 30 20c17 5 24 13 24 31 0 14-2 25-5 25-20 0-80-43-139-99l-69-66 51 74c28 40 49 77 47 81-9 15-46-3-94-46-27-24-53-44-58-44-6 0-18-9-28-20-44-48-43 0 1 75 13 23 35 47 48 54 23 13 43 41 48 71 2 8 8 18 13 22 10 8-32 12-70 8-47-5 47 44 115 60 30 7 66 16 80 21 14 4 41 11 60 15 41 8 122 47 136 66 6 7 23 81 38 163 54 283 116 515 173 643 12 29 23 58 23 65s4 17 9 22c19 22 73 203 87 293 14 99 49 189 87 231 12 13 40 32 62 42 39 18 95 25 95 12 0-3-27-34-59-68-70-72-81-108-56-175 54-144 53-121 11-244-49-146-73-309-57-388 11-52 42-108 60-108 4 0 6 55 4 123-2 105 2 134 23 207 14 47 36 110 50 140 21 46 26 77 34 210l8 155 52 99c36 68 48 101 40 106-6 4-11 10-11 14 3 20 0 26-11 20-6-4-8-3-4 4 13 21-13 61-50 77-51 21-133 19-164-4-19-15-24-28-23-58 1-26-6-48-23-70-38-50-207-410-207-440 0-7-4-13-9-13-4 0-11-18-14-41-6-38-37-90-47-79-3 3-8 39-12 80-5 62-12 84-41 128-43 66-57 99-43 108 6 3 6 11 1 17-4 7-14 30-21 53s-26 53-41 67c-30 29-70 106-70 135 0 31-28 116-45 137-9 11-13 13-9 5s-8-1-27 16c-48 44-80 64-102 64-11 0-35 14-54 30-18 17-37 29-41 29-4-1-17-4-30-6zm956-240c-10-2-28-2-40 0-13 2-5 4 17 4 22 1 32-1 23-4zm-1003-90c25-38 13-37-25 2-27 28-29 33-12 28 12-3 28-16 37-30zm170-48c14-13 25-30 25-37 0-16-19-47-21-33 0 6-5-1-9-15-7-23-8-22-9 10-1 19-8 46-16 60-27 47-10 56 30 15zm-11-141c17-17 22-64 7-64-14 0-21 15-26 50-4 34-2 36 19 14zm26-180c8-16 16-60 17-99 1-38 5-136 9-216 7-148 7-147-32-278-15-47-44 77-44 184 0 67-14 163-40 280-8 33-5 48 21 103 31 69 45 74 69 26zm405-194c12 10 12 7 2-14l-12-26-12 27c-7 16-12 37-12 48 1 12 5 6 10-13 8-27 13-31 24-22zm378 849c6-10 20-20 32-23 30-8 75-7 75 2 0 14-45 35-81 37-34 2-36 0-26-16zm473-429c3-41 10-82 15-90 10-16 4 51-12 125-6 29-7 19-3-35z"/>
    <path d="M1664 3796c-3-8-4-23-2-33 3-11 6-6 9 15 6 34 2 42-7 18zm111-196c-3-5-9-48-13-95-7-76-6-88 9-96 29-15 40-62 46-201 5-98 7-108 24-108 14 0 19 7 19 28 0 15 7 72 17 128 16 95 16 105-1 190-29 149-35 164-67 164-15 0-31-4-34-10zm1686-103c-8-10-7-18 3-32 12-17 14-16 18 13 5 34-2 41-21 19zm6-73c-13-14-7-72 8-78 11-4 15 2 14 22-1 35-13 65-22 56zm-320-42c-20-22-23-66-5-60 10 4 32 78 23 78-1 0-9-8-18-18zm289-109c-7-46-7-94 1-73 3 8 16 36 29 63l23 47h-23c-19 0-24-7-30-37zm-385-46c-21-55-23-106-8-179 9-40 19-93 22-118 10-78 27-140 36-140 6 0 16 5 23 12 11 10 10 20-5 54-14 31-22 85-29 203-10 173-21 217-39 168zm-1504-443c-15-50-27-97-27-105s-9-32-19-53c-11-21-23-51-26-67-8-34-35-39-35-6 0 38-12 67-26 67-10 0-13-8-10-22 3-13 10-49 16-80l11-58h39c39 0 39 0 45 48 12 83 36 215 51 276 25 97 11 97-19 0zm-147-4c0-45 23-57 34-17 11 41 7 57-14 57-17 0-20-7-20-40zm1995-104c5-57 4-86-4-90-13-8-15-112-3-120 5-3 18 38 30 90 21 92 21 97 4 149-9 30-21 55-25 55-5 0-6-38-2-84zm-466-57c-33-41 1-80 49-56 37 17 43 62 10 71-35 9-42 7-59-15zm227-74c-3-9-13-65-22-123-13-93-13-116-1-174 8-41 10-71 4-77-5-5-4-17 3-30 18-35-10-36-145-2-153 38-165 39-165 6 0-18-4-23-15-19-22 9-19-2 16-52 17-25 29-47 27-50-3-2-18 18-35 44-16 27-44 59-61 71l-32 22v-30c0-23 5-31 18-31 9 0 29-20 45-45 22-35 27-52 22-75-5-25-11-30-36-30-22 0-29-5-29-20 0-25 20-25 70 0 33 17 40 26 41 53 2 31 2 31 8-7l6-38 35 36c19 20 42 36 50 36s26 9 40 20c15 11 41 20 63 20 75 0 237 84 270 139 18 30 18 31-1 31-10 0-27-9-38-21-24-26-67-49-92-49-56 0-78 148-47 310 16 83 17 125 1 85z"/>
    <path d="M2878 2375c-27-24-48-48-48-54 0-16 47-32 77-27 50 10 69 49 38 80-10 9-11 17-5 21 11 7 4 25-8 25-4-1-28-20-54-45zm-380-162c-36-9-20-33 22-33 29 0 40 4 40 15 0 8-4 15-9 15s-15 2-23 4c-7 2-21 2-30-1zm-100-10c-33-8-20-33 17-33 28 0 35 4 35 20 0 20-14 23-52 13zm212-12c0-20 25-31 73-31 38 0 34 18-8 36-46 19-65 18-65-5zm-226-535c-3-8-4-27-2-43 3-26 7-28 51-31 47-3 47-3 47 28 0 17-6 38-14 46-19 18-75 18-82 0zm-124-101c0-33 2-35 35-35s35 2 35 35-2 35-35 35-35-2-35-35zm203 18-73-4v-158h75c66 0 75 2 75 18 0 12 10 21 25 25 14 4 25 11 25 16 0 6 9 10 20 10 16 0 20 7 20 35 0 24-5 35-15 35-8 0-15 7-15 15 0 11-9 14-32 13-18-1-66-4-105-5zm92-33c-3-5-16-10-28-9-21 0-21 1-2 9 28 12 37 12 30 0zm35-50c-6-11-16-20-22-20-7 0-31-10-56-21-30-15-47-18-54-11-14 14-1 32 25 32 12 0 38 8 57 19 49 26 64 26 50 1zm-164-39c-12-19-24-12-19 10 4 13 9 17 15 11s7-15 4-21zm-226-86c0-8-6-15-14-15-23 0-46-41-45-80v-35l17 45c15 40 22 46 65 59 56 17 63 41 12 41-24 0-35-5-35-15zm480-26c13-6 28-15 32-22 5-8 8-4 8 11 0 18-5 22-32 21-32 0-32-1-8-10z"/>
    <path d="M2186 1298c-22-31-20-58 3-58 15 0 18 7 17 40 0 22-2 40-3 40s-9-10-17-22zm565-25 1-38 13 35c7 19 14 27 14 18 1-21 12-23 29-6 20 20 14 28-23 28-34 0-35-1-34-37zm-371 22c0-3 9-23 20-45s20-46 20-55c0-28 37-17 49 15 9 26 8 30-8 30-13 0-20 10-24 30-5 24-12 30-32 30-14 0-25-2-25-5zm-320-20c0-18 16-20 23-2 4 9 6 9 6-1 1-7-7-21-16-30-16-16-15-17 5-20 27-4 52 19 52 47 0 17-6 21-35 21-24 0-35-5-35-15zm110-320c19-51 41-73 83-84 73-18 117-18 117 3 0 10-19 16-60 21-33 4-60 11-60 16s-9 9-20 9c-16 0-20 7-20 30 0 25-4 30-25 30-22 0-24-3-15-25zm290-65c0-21 10-24 48-14 36 10 27 34-13 34-28 0-35-4-35-20z"/>
  </g>
  <path d="M2280 4988c0-25 16-36 93-63 88-32 127-58 127-86 0-15 7-19 35-19 35 0 35 0 35 46v47l37-6c50-8 60-22 66-91l6-59-79 7c-46 4-99 2-127-5-79-17-322-59-347-59-13 0-29-6-35-14-7-8-35-19-64-26-158-34-177-41-177-67 0-17 4-22 13-16 6 4 17 8 22 9 6 1 37 9 70 18 32 9 67 16 76 16s39 6 65 14c123 36 165 46 249 55 148 18 174 18 325 9 174-10 270-37 364-104 33-24 85-58 114-75 28-17 52-35 52-40 0-18 19-9 25 12 4 12 16 30 27 41 10 10 28 39 38 63 18 41 18 47 3 84-21 53-46 54-61 4-7-21-21-53-32-70l-20-33-62 34-62 35 3 45 3 46h-38c-20 0-42-6-48-14-9-13-24-11-106 10-101 27-120 41-120 86 0 24 4 28 30 28 29 0 30 2 30 45 0 26-7 59-15 75l-16 30h-128c-94 0-131-3-134-12-4-10-6-10-6 0-1 17-231 17-231 0zm730-13c0-31 28-44 116-52 67-6 76 1 67 50-5 27-6 27-94 27s-89 0-89-25zm-1291-124c-11-36-9-43 22-100 31-55 37-61 66-61 30 0 33 3 33 30 0 41-70 170-92 170-11 0-21-13-29-39z" fill="#253556" style="transform:none"/>
  <path d="M1576 4462c-7-12 74-59 114-67 29-5 39-2 54 14l19 21h-57c-49 0-59 3-63 20-4 14-14 20-34 20-15 0-30-4-33-8zm-16-66c0-24-7-60-15-79-8-20-15-58-15-85 0-31-5-54-15-62-7-6-17-33-21-58-3-26-12-57-20-69s-14-34-14-48c0-18-5-25-19-25-15 0-20-10-25-45-4-24-11-47-17-50-5-4-9-17-9-31 0-15-6-24-15-24-10 0-15-10-15-29 0-16-6-31-14-34-16-6-33-136-18-146 5-3 12-19 16-35 6-24 3-33-15-47-21-16-22-19-10-57 13-37 12-42-13-78-34-50-34-144 0-144 8 0 14-6 14-12 6-264 18-334 56-348 22-9 24-15 24-70 0-46 3-60 15-60 19 0 28 53 29 182 1 100-1 108-22 129-18 16-22 28-17 48 18 75 18 78-14 107-37 32-40 65-11 112 24 39 15 40-34 7-43-29-46-30-46-9 0 8 19 24 45 35 38 17 44 23 36 38-11 19-8 137 3 148 14 14 5 47-19 69-26 24-33 68-14 79 5 4 18 0 28-9 27-24 41-19 41 14 0 23 4 30 20 30 13 0 18 5 14 15s0 15 15 15c26 0 28 25 4 39-16 9-15 10 5 11 16 0 23 5 21 18-1 9 1 24 4 32 18 42 47 148 47 173 0 15 4 27 10 27 14 0 32 75 24 105-4 16 3 48 20 90 34 86 34 127 0 154-38 30-44 27-44-23zm1820-336c0-13 7-20 19-20 14 0 18 5 14 20-3 11-12 20-19 20-8 0-14-9-14-20zm-1473-82c-16-12-16-15 7-49 13-19 64-68 112-109l87-74-5 48c-3 27-10 51-15 55-5 3-23 30-38 60-16 29-38 57-50 61-46 17-81 20-98 8zm969-59c-27-21-97-158-141-276-26-68-31-103-16-103 10 0 51 91 51 113 0 27 89 191 123 228 48 51 35 79-17 38zm155-66c-1-7-7-13-13-13-21-1-65-42-50-47 6-3 10-8 7-13s3-7 12-6c21 3 57 60 50 78-4 10-6 10-6 1zm-1202-28c0-5 0-29 1-52 1-40-4-48-31-45-4 1-9-25-13-56-3-31-8-70-12-87-4-20-2-26 4-17 23 34 34 13 63-125 18-87 18-95 2-175-22-111-21-516 1-585 9-27 6-28-41-8-41 17-43 18-43 6 0-16 121-103 136-97 13 5 13 9-3 31-10 13-21 25-24 25-10 0 2 144 13 157 6 7 14 10 19 7s12 2 15 10c3 9 12 16 20 16 20 0 17 44-6 110-24 68-26 118-4 127 28 11 60-35 93-135s46-130 55-122c5 6-11 270-20 328-7 47-34 43-35-5 0-31-2-34-9-18-12 28-12 163 0 170 6 4 10-12 10-39 0-33 4-46 14-46 22 0 25 33 15 169-9 133-17 159-87 300-26 53-131 176-133 156zm1147-237c4-31-2-69-22-133-49-164-55-189-61-264-7-82 4-90 29-19 21 62 56 176 68 227 13 49 16 203 6 220-15 24-25 9-20-31zm159-218c-7-12 2-30 16-30 5 0 9 9 9 20 0 21-15 27-25 10zm321-73c-12-9-17-23-14-45l3-32 22 45c22 46 20 54-11 32zm-370-367c2-24 8-48 14-54s6 3 0 25c-5 19-11 43-13 54-3 11-3 0-1-25zm-1549-202c-10-35-24-94-32-133-9-38-18-78-21-87-8-28-32-21-38 12-3 17-9 44-12 60-3 17-12 30-19 30s-12-8-10-17c45-220 43-213 61-213 9 0 14-10 14-27 0-91 74-183 175-220 33-11 78-29 100-38 64-27 24 5-57 45-120 59-161 141-124 252 25 74 68 240 64 244-3 2-17-40-32-94-29-103-64-178-81-171s-9 178 14 298c25 125 23 156-2 59zm1866-53c0-33-5-83-12-110-8-33-9-59-3-75 8-21 12-12 30 65 15 66 18 95 10 109-6 11-14 31-19 45-6 19-7 9-6-34zm-1680-60c0-22 2-30 4-17 2 12 2 30 0 40-3 9-5-1-4-23zm1250-29c-28-13-30-26-3-26 10 0 24 9 30 20 12 22 6 23-27 6zm337-403c-25-17-70-62-70-70 0-9 73 47 86 66 18 25 16 26-16 4zm-540-88c0-19 5-35 10-35 6 0 10-7 10-15 0-9 9-15 25-15 14 0 25 4 25 8 0 11-58 92-65 92-3 0-5-16-5-35zm200-35c-14-11-32-20-40-20-24 0-40-21-40-51v-28l73 33c39 18 100 43 135 55 34 13 62 25 62 27s-37 4-82 4c-67 0-88-4-108-20zm-940-90c0-8 31-30 43-30 3 0 3 9 0 20-5 20-43 29-43 10zm63-16c-3-8-1-20 6-27 8-8 11-4 11 16 0 30-7 35-17 11zm345-381-68-4v-34c0-32 3-35 29-35 16 0 37-7 46-16 14-15 22-15 58-4 48 14 67 27 67 46 0 10-8 10-32 3-18-5-42-9-53-9-29 1 0 16 48 24 48 9 52 37 5 34-18-1-63-3-100-5z" fill="#532837" style="transform:none"/>
  <g fill="#5B2B39" style="transform:none">
    <path d="M1582 4473c-8-13-2-22 32-44 52-35 126-44 126-15 0 9-19 17-57 22-46 7-60 14-68 32-12 26-21 28-33 5zm-50-120c-17-49-49-144-71-213-23-69-48-145-57-170-21-60-74-231-74-241 0-4 8-5 19-2 10 3 22 0 25-6 16-26 28-10 22 29-6 37-5 40 17 40 33 0 40 10 21 31-16 17-16 19 0 25 10 4 14 13 11 24-3 10-1 21 5 25s8 15 5 26c-5 15-1 19 14 19 20 0 25 9 22 37-1 7 6 24 15 38s18 44 19 66c2 22 11 50 21 60 12 14 17 33 15 64-1 24 5 59 13 79 32 76 30 156-4 156-4 0-21-39-38-87zm347-660c-13-9-26-18-28-19-2-2 0-9 6-16 5-7 10-24 11-38s5-26 9-27c4-2 7-45 5-95-4-115 4-178 23-178 25 0 36 88 21 155-4 17-8 35-9 40-2 6-6 16-10 23-15 23 11 12 31-13 33-42 45-114 36-218-11-138-7-185 25-278 16-46 32-99 36-116 3-18 10-35 15-38 10-6 3 339-10 497-9 99-13 116-58 210-58 123-69 134-103 111zm-88-20c0-12-4-30-7-40-5-14-4-15 5-7 7 6 11 24 8 40-3 21-4 23-6 7zm-471-23c0-30 28-100 41-100 4 0 10 12 13 26 5 19 1 33-13 48-12 12-21 30-21 39s-4 17-10 17c-5 0-10-13-10-30zm5-124c-13-9-16-20-11-39 9-38 22-33 29 10 8 44 6 47-18 29zm-18-130c-15-24-27-46-27-49 0-5 55 23 78 39 2 1-2 14-10 28l-13 25-28-43zm24-77c-23-24-41-53-41-64 0-25 64-385 125-705 41-215 66-278 139-354 52-53 83-63 39-12-17 18-40 55-54 82-31 65-37 202-15 328 9 49 14 91 12 94-6 6-36-135-44-208-4-36-11-64-17-63-25 5-38 102-40 293l-3 195-26 13c-14 7-30 21-35 30-14 29-23 205-11 236 7 21 7 37-1 60-9 25-8 39 5 70 9 22 14 41 12 43s-22-15-45-38zm516-412c-9-24-7-202 3-217 7-10 10 23 10 108 0 117-2 137-13 109zm1554-344c-6-21-11-54-10-73 1-42 4-35 23 48 15 66 4 87-13 25z"/>
    <path d="M1562 2406c-7-15-12-35-12-44 1-9 7-2 16 17 17 41 14 66-4 27zm554-418c-29-38-29-68-1-68 8 0 15 6 15 14s5 16 11 18 9 19 7 38l-3 35-29-37zm825 13c-14-4-26-12-29-20-3-10 2-10 24 2 16 8 36 17 44 20 13 5 13 5 0 5-8 0-26-3-39-7zm-671-442c0-19 4-39 8-46 8-13 241-28 273-18 11 4 19 15 19 25 0 17-4 18-26 10-31-12-87-13-80-1 3 4 29 11 57 15s49 9 47 11c-2 3-51 9-109 15-57 5-123 12-146 16l-43 6v-33zm487-135c-11-11-8-84 3-84 6 0 10-8 10-18s6-26 13-36c12-16 14-16 31 3 16 17 17 28 10 78-8 52-12 58-34 61-14 2-29 0-33-4zm-616-156c0-28 2-30 9-13 12 28 12 45 0 45-5 0-10-15-9-32zm29-8c0-5 7-10 15-10s15 5 15 10c0 6-7 10-15 10s-15-4-15-10z"/>
  </g>
  <path d="M2200 4989c0-19 24-34 110-68 134-54 149-62 171-93 12-16 20-31 18-33s-49-11-104-20-108-19-117-21c-14-4-18 1-18 23 0 25-9 35-62 66-46 27-74 37-105 37-42 0-43-1-43-34 0-40 24-59 120-92l64-23-29-11c-24-9-31-8-41 4-6 9-25 16-42 16-24 0-31-5-34-22-2-15-11-24-26-26-13-2-26-10-28-17-3-7-34-18-70-25-58-11-64-15-64-37 0-13 4-22 9-18 6 3 51 14 102 25 50 11 98 25 106 32 8 6 26 12 41 14 30 2 271 47 342 63 28 6 48 6 56 0 7-5 41-7 83-3l71 7 1 36v36l12-35c12-33 15-36 110-61 53-14 105-33 115-42 26-24 38-21 52 13 7 17 16 30 21 30 13 0 11-7-7-35-21-31-10-47 56-80 26-13 61-36 79-51 27-22 34-24 48-13 15 13 15 12 4-9-7-13-10-27-6-30 13-13 41 17 74 80 32 64 33 67 21 119-7 30-32 106-56 169s-44 121-44 128c0 6-4 12-10 12-5 0-10-6-10-12-1-33-15-39-68-28-28 6-56 18-63 26-9 11-46 14-183 14-171-1-171-1-137-19 35-19 60-53 61-84 0-15-6-12-26 12-14 17-32 31-40 31-17 0-17-1-4-37l11-28-23 28c-16 19-38 30-70 36-26 4-59 16-73 25l-26 17 5-68c3-37 3-58 0-47-8 35-35 52-145 94-101 39-189 52-189 29zm845-124c6-17 22-46 36-65 15-19 34-49 42-66 9-17 23-36 31-43 9-8 16-26 16-41 0-16 6-30 13-33 6-2 10-7 7-10-3-2-29 10-57 29-52 33-53 34-53 84v50h-34c-24 0-39-7-49-20l-15-21-93 26c-111 32-125 38-132 65-4 17 0 20 33 20 21 0 40 3 42 8 4 9 166 51 188 48 8 0 20-15 25-31zm-1315-61c0-18 6-39 14-46 7-8 17-24 20-36 6-17 15-22 42-22 32 0 34 2 34 34 0 19-6 41-14 48-7 8-17 24-20 36-6 18-14 22-42 20-31-2-34-5-34-34z" fill="#273A66" style="transform:none"/>
  <path d="M2060 4986c0-9 8-16 19-16s21-4 23-9 44-21 93-36c50-15 124-43 165-63 84-40 80-50-21-51-61-1-136 31-213 92-29 23-52 32-92 35l-54 4v-33c0-25 10-44 39-75 29-32 39-52 43-88 4-32 2-46-7-46-6 0-34-11-61-25s-55-25-61-25c-7 0-13-4-13-10 0-5-6-7-13-4-12 4-37 58-37 78 0 4 34 4 75 0l75-7v35c0 32-3 36-31 42-17 3-49 6-70 6-28 0-42 6-54 23-15 21-15 22 15 25 27 3 30 7 30 36 0 17-5 37-12 44-16 16-88 16-88 0 0-9-3-9-12 0-7 7-25 12-40 12-23 0-28-4-28-24 0-14-5-37-10-52-12-32-4-64 16-64 8 0 14-10 14-25 0-14 5-25 10-25 6 0 10-5 10-11 0-18 53-129 62-129 4 0 8-7 8-15 0-17 11-19 25-7 12 10 105 39 157 48 20 3 39 12 41 19 3 6 19 15 37 18 27 6 31 10 26 29-6 23-6 23 6 0 10-20 17-23 47-17 20 4 59 17 86 30 28 12 97 30 155 40 58 9 108 20 113 24 15 14-6 74-37 103-19 18-77 49-146 76-99 40-127 47-202 50-76 3-88 2-88-12zm98-167c30-17 52-33 49-35-6-6-87 30-112 50-36 28 6 18 63-15zm-373-45c15-25 25-47 23-49s-16 18-31 46c-35 62-28 65 8 3zm960 201c32-26 45-31 45-15 0 5 17 12 38 16 76 14 67 23-23 24h-90l30-25zm-198-125c3-58 8-108 12-111 3-4 16-3 29 2 27 10 29 48 5 85-9 14-24 49-34 77l-18 52 6-105zm170 32c9-103 12-113 46-127 18-7 61-21 96-30s76-26 92-37l29-22 34 40c34 38 51 30 21-11-14-18-12-22 26-57 23-21 45-38 50-38s24-14 44-31c20-18 37-30 39-28 6 6 47 78 67 119 10 19 18 30 19 24 0-18-30-85-56-123-27-41-30-51-11-51 12 0 29 27 73 111 12 22 11 36-5 100-17 67-19 70-20 34-2-66-61-143-61-79 0 14-9 38-21 52-17 23-68 99-90 136-4 6-12 23-18 39-8 22-17 27-43 27-40 0-222-42-226-52-7-15-31-8-49 15-33 42-41 40-36-11zm-52-14c-10-33-6-71 11-87 21-22 25-9 18 53-7 59-17 71-29 34z" fill="#2A406F" style="transform:none"/>
  <g fill="#6A4C46" style="transform:none">
    <path d="M1716 4844c-12-32-6-54 14-54 16 0 20-7 20-35 0-31 3-35 25-35 14 0 25 2 25 5 0 6-71 135-75 135-2 0-6-7-9-16zm43-21c11-21 29-51 40-68l21-30v33c0 25-4 32-19 32s-21 8-23 32c-2 22-9 34-21 36-17 4-17 1 2-35zm1512-166c-7-23-27-66-46-97-31-52-33-58-25-115 5-33 9-91 9-130 0-38 6-125 13-192 13-142 7-137 121-101l69 21-6 36c-18 102-47 305-52 374-6 66-10 77-25 77-20 0-22 4-19 65 0 22-5 54-12 72l-14 32-13-42zm-1474-75c-10-10-17-23-17-29 0-20-72-93-92-93-10 0-33 7-49 16-17 8-37 13-45 10-44-17 25-77 97-84l47-4 36 56c20 31 36 59 36 63s17 24 37 45l37 38h-35c-22 0-42-7-52-18zm-477-921c0-10 7-24 15-31 13-11 13-8 4 19-12 35-19 40-19 12zm1618-1035c-16-12-16-14 7-26 20-11 27-11 42 0 17 13 17 13 1-5-15-16-21-17-43-7-27 13-34 2-10-18 21-17 62-4 71 22 4 15 1 25-12 35-22 16-34 16-56-1zm-563-434c-69-24-141-76-207-148-62-68-82-100-73-114 11-18 35-11 35 10 0 11 6 20 13 20 6 0 50 38 97 85 47 46 91 85 98 85 6 0 12 4 12 9s27 14 60 22c46 10 60 17 60 31 0 23-29 23-95 0zm225-2c0-16 7-20 30-20 17 0 30-4 30-10 0-5 7-10 15-10s15-4 15-10c0-5 11-10 25-10 18 0 25-5 25-20 0-11 9-25 20-32s20-18 20-25 4-13 9-13 11-8 14-17c2-10 8-25 11-34 5-12 0-18-18-23-19-5-26-13-26-31 0-22 3-23 24-15 77 29 83 58 32 140-37 59-110 120-165 139-48 16-61 14-61-9zm-221-304c-19-13-51-31-70-39-57-25-81-54-77-95l3-37 65-5c82-6 95-14 75-43-8-12-15-35-15-52v-30l-55 3c-50 4-55 2-55-17 0-12-4-21-10-21-14 0-12-63 3-83 6-9 30-22 52-29 29-9 41-19 43-36 3-19-1-22-27-22-41 0-41-26-1-35 44-10 112-102 113-152 0-7 7-13 16-13 10 0 25 22 40 62 34 86 58 108 119 108 79 0 108-15 128-66 20-52 30-55 39-13 6 28 8 29 21 12 7-10 14-16 14-13 1 3 3 19 5 35 2 17 7 44 10 62 9 42-19 139-42 146-10 2-27 8-37 13-18 7-19 4-12-57 3-35 9-77 13-94 6-28 5-29-11-13-9 10-39 20-67 24l-49 7 25 33c19 24 25 45 25 81 0 58-7 70-45 78-69 15-95 27-95 42 0 9-7 24-15 34-15 15-13 17 15 21 21 3 39-1 55-14 26-20 66-23 95-8 17 9 19 18 13 58-7 56-9 59-96 134-64 55-70 58-120 58-39 0-61-6-88-24zm177-92c28-13 59-34 70-46 11-13 12-18 4-12-8 5-37 8-65 5-97-8-158-3-171 13-7 10-26 16-48 16-39 0-45 10-20 30 42 35 150 33 230-6zm-110-182c-9-9-37 8-31 18 5 8 11 7 21-1 8-6 12-14 10-17zm-126-62c8-5 12-12 9-15-8-8-39 5-39 16s11 11 30-1zm236-15c-22-17-50-18-151-7l-70 7 100 6c55 3 109 6 120 7 20 1 20 1 1-13zm34-44c-6-12-16-21-23-21s-30-10-52-21c-29-16-43-19-56-11-9 6-26 8-37 5-17-4-20-1-15 16 6 22 19 28 25 12 4-11 93 10 135 32 34 18 38 16 23-12zm-90-96c0-8-6-15-14-15s-16 7-20 15c-4 10 1 15 14 15 11 0 20-7 20-15zm-30-49c0-23-30-86-40-86-6 0-10 14-10 30 0 17-4 30-10 30-14 0-12 27 3 33 25 11 57 7 57-7z"/>
    <path d="M2025 1395c-19-88-12-128 25-133 12-2 26 2 30 8 5 8 9 7 13-4 4-10 1-16-7-16s-16-7-20-15c-3-9 0-15 9-15 11 0 15-12 15-40 0-24 11-63 28-98 16-31 37-81 48-110 23-65 43-88 91-101 77-22 247-5 318 31 96 49 110 64 143 151 37 96 49 157 33 157-6 0-11-10-11-23 0-12-16-39-35-59-65-66-169-64-208 5-15 24-22 28-54 25-31-2-39-7-41-25-2-13-11-23-20-23s-26-7-36-15c-20-15-83-20-123-9-21 6-21 7-6 22s14 17-14 23c-44 9-53 17-53 50 0 22-5 29-20 29-11 0-20 7-20 15s8 15 18 15c12 0 22 14 32 43 13 36 21 44 58 57 51 18 56 40 8 40-44 0-66-9-66-26 0-8-7-14-15-14s-15-8-15-17c-1-41-18 14-25 80-6 65-7 67-35 67-27 0-29-3-45-75zm553-350c76 0 89-2 79-14-18-22-128-68-225-94-78-22-92-23-136-12-53 14-77 37-93 90l-10 32 43-5c24-2 80 1 124 8 71 11 80 15 80 34s2 18 24-9c24-29 26-30 114-30z"/>
  </g>
  <path d="M1736 4968c-3-18-7-51-10-73-2-22-7-47-10-55-4-9 12-47 39-90 24-41 45-81 45-88s12-31 26-53c17-28 29-38 37-31 7 5 35 17 62 26 28 10 72 29 99 42 28 13 58 24 67 24 27 0 31 16 15 55-11 25-12 35-4 33 12-4 20-17 35-56l8-23 35 30c33 28 34 30 18 47-14 14-20 15-32 5-13-11-17-9-26 13-5 14-22 34-38 43-16 10-44 36-63 57l-34 39 29-7c17-4 46-20 65-35 20-16 67-45 104-65l69-37 100 11c108 11 118 14 118 35 0 34-95 84-270 143-102 34-110 35-292 39l-187 5-5-34zm202-54c-7-6-48 35-48 47 0 5 12-3 27-17 14-13 24-27 21-30zm-120-95c18-37 35-56 52-60l25-7-27-1c-23-1-34 9-68 59-22 33-43 67-47 77-6 15-5 15 15 1 12-8 35-39 50-69zm-4-94c15-27 20-41 11-30-25 31-82 129-90 156-6 23 24-25 79-126zm184 79c42-12 22-19-40-15-56 4-59 5-28 12 19 3 37 7 40 8 3 0 15-2 28-5zm-24-113c3-5-1-12-10-15-22-9-24-8-24 9 0 16 25 21 34 6zm577 142c0-28 4-55 9-58 12-7 12 15 1 70l-9 40-1-52z" fill="#314C86" style="transform:none"/>
  <path d="M1730 4945c0-62 10-85 95-220 78-124 80-125 185-73 47 24 86 50 88 59s-9 30-23 48c-30 35-30 35 13 20 23-8 35-20 41-42l9-32 1 37c1 31-5 41-31 61-39 28-170 57-176 38-7-21-38-11-80 24-22 20-58 42-79 49l-38 13 43 12c47 13 48 13 111-46 13-13 26-23 30-23 3-1 32-2 63-4l58-3-34 23c-25 18-33 29-29 44 3 11 9 20 14 20s59-25 119-55c105-53 153-65 194-49 31 12 15 32-56 67-87 43-198 68-246 55-26-7-39-5-65 11-28 17-36 18-69 7-20-8-51-16-68-19-25-6-30-3-30 13 0 13-7 20-20 20-18 0-20-7-20-55zm58-59c13-7 36-37 51-67l27-54 65-6c37-3 76-13 89-22 30-21 12-22-54-2-27 8-59 12-72 9l-23-6 21-29c36-49 14-42-28 8-43 51-67 86-103 146-24 40-16 47 27 23zm-70-32c-5-23 5-45 76-158 31-49 56-97 56-108 0-15 3-16 19-6s17 13 5 26c-8 8-24 33-36 56-11 22-29 52-38 66-10 14-31 52-48 84-22 43-31 54-34 40z" fill="#345493" style="transform:none"/>
  <g fill="#785951" style="transform:none">
    <path d="M3280 4632c0-26-7-45-20-57-11-10-20-14-20-9s-9-5-20-22c-19-29-19-34-5-60 8-16 15-39 15-51 0-14 6-23 15-23 13 0 14 10 9 65-8 74 3 84 30 29 15-34 18-35 30-19 8 11 18 15 26 10 18-11 6 63-22 126-25 59-38 62-38 11zm-1502-69c-6-16-27-41-45-57-32-27-37-28-67-18-55 20-86 12-86-23 0-2 20-15 45-29 32-19 50-24 62-18 10 5 23 8 29 5 13-4 94 83 94 102 0 8 11 22 25 33 33 27 32 32-11 32-30 0-38-5-46-27zm1477-223c9-16 18-30 21-30 2 0-2 14-11 30-9 17-18 30-21 30-2 0 2-13 11-30zm-1935-670c0-8 5-22 10-30 9-13 10-13 10 0 0 8-5 22-10 30-9 13-10 13-10 0zm1500-1675c0-28 4-35 20-35 22 0 26 20 10 51-16 30-30 23-30-16zm-354-53c-3-6-17-13-31-16-14-4-46-22-71-41s-52-35-60-35-14-4-14-10c0-5-5-10-11-10s-22-10-35-22c-18-18-24-34-24-70v-48h40c22 0 40 5 40 10 0 13 36 13 61-1 19-10 19-12 5-34-9-14-16-33-16-45 0-18-6-20-55-20-48 0-55-2-55-20 0-11-4-20-10-20-13 0-13-77 0-85 6-3 10-15 10-26 0-59 111-144 125-98 4 10 14 19 23 19 16 1 15 2 0 11-26 15-22 29 8 29 20 0 25-4 20-17-4-9 1-25 13-37 27-29 18-66-15-66-13 0-24-2-24-5 0-15 42-85 50-85 14 0 36 39 55 98 10 29 21 55 26 58s9 12 9 20c0 10-10 13-32 12-25-2-34 2-45 22-7 15-22 26-37 27-13 1-37 8-53 16-15 8-40 17-55 21-27 6-60 46-38 46 5 0 10 10 10 21 0 18 4 20 28 14 45-12 175-18 168-7-3 5-25 13-48 17l-43 8 44 9c30 7 52 6 68-1 14-6 45-16 71-22 77-17 81-43 17-130-25-34-45-64-45-68 0-3 29-6 64-6 76-1 109-19 126-70 6-19 15-35 20-35 10 0 32 98 29 132-4 45 0 58 18 51 13-5 15-2 10 18-4 13-7 30-7 36 0 7-16 19-35 27s-35 22-35 30c0 9-9 44-21 78-11 35-22 69-25 76-3 10-9 10-31-2-26-13-31-12-53 6-21 17-33 19-86 13-51-5-71-3-113 15-28 13-60 20-71 17s-23-1-26 4c-4 6-11 6-19-1-9-7-15-7-19-1-9 14 30 48 84 75 25 12 59 31 76 41 44 26 67 16 164-72 80-73 85-75 90-52 4 13 3 25-2 27-4 2-8 16-8 30 0 35-9 48-42 55-17 5-34 21-50 50-21 38-27 42-65 45-23 2-44-1-47-6zm3-306 23-25-35-6c-19-4-42-3-51 2-14 8-14 11 0 31 20 28 35 28 63-2zm141-7c0-5-9-9-20-9s-20 6-20 14c0 9 7 12 20 9 11-3 20-9 20-14zm113-191c2-18 4-34 3-35s-21 1-44 4l-43 6 33 28c18 15 36 28 39 29 4 0 9-15 12-32z"/>
    <path d="M2302 1519c9-26 52-39 133-38 86 1 88 4 12 14-26 3-45 10-42 16 4 5-9 9-27 9s-44 3-57 7c-18 4-23 2-19-8zm-255-46c-15-30-29-126-22-159 5-22 8-42 7-45 0-3 10-4 23-1 14 2 25 11 25 21 1 9 7 1 15-17 10-23 20-32 32-30 23 4 30 38 9 38-13 0-16 12-16 54 0 49-2 54-25 58-22 5-24 2-19-18 7-26-5-31-24-12-17 17-15 53 3 68 12 10 15 10 15-4 0-9 8-16 20-16 16 0 20 7 20 35 0 32-2 35-29 35-17 0-32-3-34-7zm750-110c-4-3-7-16-6-27 0-19 1-19 10 3 10 24 8 36-4 24zm-721-128c4-8 12-15 20-15 19 0 18 16-2 24-22 9-24 8-18-9zm671-32c-4-3-7-16-7-29 0-35-70-91-124-99-64-10-95 0-138 47-40 44-61 46-66 6-2-20 6-32 39-57 24-17 49-31 57-31 50 0-96-75-165-85-77-10-107 0-126 41-10 19-17 37-17 39 0 3 37 5 83 5 102 0 127 7 127 32 0 18-4 19-52 11-98-15-147-9-176 22-15 16-19 23-9 15 12-9 21-10 28-3s-1 13-25 17c-20 4-36 11-36 16 0 6-9 10-20 10-29 0-25-21 18-103 20-40 43-87 51-106 15-37 49-55 122-66 56-8 211 31 309 78 60 30 67 37 93 92 16 33 32 81 36 107 8 50 8 52-2 41z"/>
  </g>
  <g fill="#7D5F59" style="transform:none">
    <path d="M1717 4848c-9-33 5-75 46-149l36-63-21-40c-12-23-36-56-55-75-33-33-35-34-75-21-38 11-43 10-55-6-12-17-11-19 12-26 14-3 34-17 45-30 17-20 22-21 32-8 7 8 20 15 29 15 21 0 85 57 93 83 4 11 23 30 42 41l34 21-32 57c-17 32-39 69-49 83-9 14-30 51-47 83-26 53-30 56-35 35zm1233-2217c0-5-7-11-17-13-12-2-9-7 12-18 22-12 29-12 32-2 3 6 9 12 15 12s6-6-2-15c-15-18-42-19-58-3-7 7-12 8-12 2 0-15 22-34 40-34 16 0 50 29 50 43 0 3-7 13-16 21-17 17-44 21-44 7zm-559-437c-68-18-97-38-203-143-87-85-107-121-68-121 16 0 20 7 20 30 0 26 4 30 28 30 21 0 45 16 92 60 35 33 67 60 72 60 4 0 8 6 8 13 0 13 90 47 123 47 10 0 17 8 17 20 0 24-14 24-89 4zm199-4c0-16 7-20 35-20 40 0 49 24 13 34-38 10-48 7-48-14zm110-39c0-29 3-31 35-31 33 0 35-2 35-35 0-19 4-35 8-35s16-22 27-50c11-27 25-50 33-50 56 0-21 148-109 211l-29 20v-30zm-490-421v-50h44c25 0 48 5 51 10 8 12 35 13 54 1 10-6 12-19 7-45l-7-36h-117l-11-44c-6-25-11-54-11-66 0-27 26-54 45-46 14 5 80-63 70-72-2-3-13 6-24 19-17 20-20 21-21 7 0-14-8-18-35-18-28 0-35-4-35-20 0-17 7-20 45-20 25 0 45 5 45 10 0 6 11 10 25 10 18 0 25 5 25 20s7 20 25 20c14 0 25 5 25 10 0 12-76 49-101 50-22 0-68 51-51 57 6 3 12 13 12 24 0 22 36 23 58 2 8-8 41-13 85-12 72 0 72 9 2 24-27 6-28 8-13 19 17 12 17 14-2 22-20 9-19 10 3 38 19 23 33 30 76 34 47 4 53 3 58-17 3-14 13-21 29-21 13 0 24-5 24-11s-11-8-29-4c-23 5-29 2-34-15-6-24 12-35 44-27 11 3 36-3 55-15 35-21 43-13 23 23-14 27 16 66 38 48 10-9 13-8 13 5 0 9-4 16-10 16-5 0-7 7-3 16 5 13 3 15-13 6-26-13-81-8-102 11-22 20-39 22-83 13-28-6-46-3-79 14-54 28-128 36-136 15-4-8-9-15-13-15-11 0-10 33 2 48 7 9 2 12-22 12-31 0-31-1-31-50zm430 22c0-4 9-13 20-20 18-11 20-10 20 8 0 13-7 20-20 20-11 0-20-3-20-8zm74-200c-5-4-20-22-33-39-17-26-19-33-7-33 21 0 46-28 46-51 0-16-7-19-40-19-53 0-53-23 0-39 49-15 61-31 64-93 2-45 19-13 24 45 6 78-32 244-54 229z"/>
    <path d="M2302 1518c7-20 49-38 88-38h34l-37 19c-53 27-90 35-85 19zm470-24c1-9 9-19 16-22 9-3 13 2 10 14-1 9-9 19-16 22-9 3-13-2-10-14zm-732-40c-16-41-12-49 14-25l25 23-6-22c-8-29 17-100 35-100 12 0 13 12 7 68-8 80-9 82-41 82-17 0-27-8-34-26zm338-156c16-24 32-51 35-61 7-19 34-33 44-24 3 4 9 24 13 47 7 37 6 40-16 40-15 0-24-6-24-15 0-8-4-15-10-15-5 0-10 16-10 35 0 32-2 35-30 35h-31l29-42zm-318 2c0-11 5-20 10-20 6 0 10 9 10 20s-4 20-10 20c-5 0-10-9-10-20zm30-4c0-27 26-59 43-53 6 2 16 20 23 40l13 37h-40c-35 0-39-3-39-24zm-20-61c0-8 9-15 20-15 24 0 27 15 4 24-22 9-24 8-24-9zm30-35c0-5 9-10 20-10s20 5 20 10c0 6-9 10-20 10s-20-4-20-10zm641-31c0-9-8-22-16-29-17-14-20-40-5-40 14 0 32 49 27 69-4 14-5 14-6 0zm-637-31c4-18 17-49 30-69 13-19 34-59 46-87 19-45 27-52 57-58 20-4 69-4 110 0 59 5 89 13 143 43 38 20 83 51 100 68 31 32 31 32 7 28-38-7-89 13-132 53-39 35-54 33-55-7 0-20-61-39-125-39-52 0-110 23-119 47-6 13-4 14 9 3 12-10 19-10 27-2 9 9 7 12-10 12-12 0-30 9-39 20-10 11-26 20-36 20-17 0-19-5-13-32zm360-99c-3-5-29-9-57-8l-52 1 45 12c46 13 74 11 64-5z"/>
  </g>
  <path d="M1706 4814c-9-27-31-78-48-114-45-96-51-120-28-120 25 0 120 95 120 120 0 11 5 20 10 20 17 0 10 53-14 99l-22 43-18-48zm814-2681c-14-2-39-11-56-18-28-13-32-20-36-65-6-61-63-152-114-182-20-11-34-28-34-39 0-14-7-19-25-19-22 0-25-4-25-36v-36l46 41c26 23 53 41 60 41s33 16 58 35c26 19 50 35 54 35s20 7 36 15c34 18 41 15 66-35 17-34 50-58 72-52 10 3 21-44 14-57-7-11 32-36 41-27s24 137 23 196c-1 75-17 159-35 187-13 20-23 23-68 22-28-1-63-4-77-6zm-174-469c-3-9-6-29-6-45 0-27 3-29 38-29 29 1 34 3 20 11-16 9-16 12 2 44l20 35h-34c-22 0-36-6-40-16zm206 8c-7-5-13-26-15-48l-2-39 38 2c20 1 37-1 37-6 0-4 11-13 25-19 30-14 31-9 4 34-11 19-16 34-10 34 21 0 11 27-14 38-30 14-45 15-63 4zm-348-118c-11-43 3-105 34-148 24-33 37-42 66-44 31-3 50 10 28 20-4 2-21 21-36 43l-29 40 37-37c33-34 36-36 36-15-1 24-22 57-37 57-5 0-20 9-33 20-20 17-22 23-12 46 18 37 15 44-18 44-23 0-31-5-36-26zm427-96c-80-79-80-91 2-82 38 4 67 12 75 22 17 22 16 108-2 115-8 3-39-20-75-55zm-595-10c-3-13-6-56-6-95 0-71 1-73 25-73 21 0 25 5 25 30 0 19-7 33-20 40s-20 21-20 38c0 16 9 38 20 50 25 26 25 32 1 32-11 0-21-9-25-22zm344-22c0-9 8-16 20-16 24 0 26-16 3-29-30-16 2-41 53-41 49 0 60 18 22 35-13 6-27 20-33 33-5 12-15 22-22 22-6 0-18 3-27 6-11 4-16 1-16-10z" fill="#906754" style="transform:none"/>
  <g fill="#8A685E" style="transform:none">
    <path d="M1737 4814c-3-3-5-18-3-33 2-14 1-18-1-8-9 37-33 9-33-39 0-13 5-24 10-24 6 0-4-15-22-33s-36-32-39-30c-15 7-64-150-53-169 3-4 10-8 16-8 7 0 22-10 36-22 22-22 24-22 36-6 7 10 16 15 19 11 10-10 82 68 106 115 12 23 26 42 31 42 6 0 10 3 10 8-1 16-107 202-113 196zm1205-2193c-11-7-10-10 3-15 26-10 35-7 35 9 0 17-18 19-38 6zm-22-30c0-6 9-15 21-21 16-9 26-8 46 5 13 9 22 19 19 22s-13-2-22-11c-15-15-18-15-40-1-13 8-24 11-24 6zm-515-396c-27-8-53-14-57-15-4 0-20-11-35-25s-55-49-87-78c-107-94-126-115-126-135 0-13 8-21 25-24 19-4 25-1 25 12 0 18 81 88 186 163 30 21 54 42 54 46 0 11 56 31 86 31 17 0 24 6 24 20 0 24-22 25-95 5zm175-3c0-16 9-21 45-26 25-4 45-11 45-17 0-5 9-9 20-9s20-7 20-15 4-15 9-15 11-13 14-29c3-15 24-48 47-72 34-36 38-45 23-47-53-8-63-13-63-32 0-11 7-20 15-20 20 0 91 36 100 51 12 19-54 136-98 174-53 46-81 61-134 70-39 6-43 5-43-13zm-310-372c0-15-7-20-25-20-32 0-57-47-53-98 3-37 3-37 48-36 25 1 57 5 73 9 26 7 27 6 27-29s-12-47-25-26c-3 6-22 10-41 10-30 0-37-4-50-35-28-68-5-174 41-191 13-5-1-9-45-13-36-3-71-10-79-15-10-6-12-4-8 10 14 45 19 164 8 164-6 0-11-4-11-10 0-5-11-12-24-16-35-8-60-40-62-77-2-28-1-30 10-14 20 26 25 21 19-17-3-19-1-36 6-40 6-4 11-20 11-35 0-61 11-91 34-91 16 0 25 9 31 32 15 47 55 72 115 71 64-1 90-19 130-88 17-30 35-55 40-55 14 0 32 29 27 43-3 8 8 38 24 67s29 54 29 56c0 1-16 0-35-3-20-3-41-1-49 6-11 10-15 9-18-3-2-13-9-11-33 9l-30 24 40 1c36 0 38 1 20 14-11 7-46 23-78 35-81 30-92 42-76 86 8 21 17 31 22 26s23-5 40-1c18 4 45 11 60 14l28 7-23 20c-13 11-17 18-10 14s16 4 21 18c6 14 15 28 20 32 20 11-7 44-42 50-17 4-36 6-42 7-5 0-18 4-27 9-13 7-20 4-28-11-14-25-40-26-40-1 0 18 8 27 73 86l28 25h-35c-29 0-36-4-36-20zm31-387c23-25 38-47 34-51-3-4-10-1-14 7-5 7-12 11-16 9-11-5-63 74-70 107l-7 30 16-29c9-16 35-49 57-73zm202 270c-24-9-13-23 17-23 20 0 30 5 30 15 0 15-22 19-47 8zm49-31c-7-5-13-26-15-48-2-39-2-39 32-37 19 1 41-5 49-14 22-22 34 4 15 34-10 14-11 23-4 23 6 0 11 7 11 16 0 10-5 14-16 10-8-3-13-2-10 3 11 17-39 27-62 13zm48-28c0-21-19-54-31-54-5 0-8 12-5 28 2 15 5 30 5 35 2 14 31 7 31-9z"/>
    <path d="M2310 1510c0-9 71-33 78-25 5 4-53 35-68 35-5 0-10-4-10-10zm375 0c-3-5-3-20 1-33 3-15-1-38-11-57-9-17-14-34-12-36 2-3 21-6 42-8 27-3 42-10 51-27l13-24 1 31c0 17-4 44-9 60s-12 41-15 55c-6 27-51 56-61 39zm-655-156c0-14 4-22 10-19s10-1 10-9c0-9-5-16-11-16s-4-7 5-15c22-22 36-18 36 11 0 16-11 36-25 50l-25 23v-25zm40-118c0-9 7-16 16-16 17 0 14 22-4 28-7 2-12-3-12-12zm33-72c6-61 35-98 77-102l33-4-31 37c-19 21-34 52-38 75-5 31-11 40-27 40-17 0-19-5-14-46zm313-73c-3-5-34-14-69-21-96-18-101-25-35-55 46-21 66-25 112-20 55 5 108 25 121 45 3 5-17 21-44 35-53 26-76 31-85 16z"/>
  </g>
  <g fill="#956C5A" style="transform:none">
    <path d="M1706 4774c-11-27-6-62 8-67 17-7 26 20 19 57-6 29-18 34-27 10zm759-2569c-5-2-26-6-47-9-29-5-38-13-47-38-21-59-12-138 15-138 11 0 8-10-11-37-14-21-25-43-25-49 0-20-60-64-86-64-13 0-24-4-24-9 0-4-12-26-27-47-14-21-32-66-38-99-17-81-43-175-53-189-4-6-9-23-11-38-2-23 2-28 18-28 18 0 21 6 21 40 0 22 5 40 10 40 6 0 10-10 10-23s10-44 23-69l23-46-44-5c-51-6-85-34-80-66l3-21 53 25c57 27 106 31 161 15 19-5 37-8 39-5 3 3-18 27-46 55-68 66-80 105-52 160 20 39 22 41 39 26 10-9 24-14 32-12s27 7 42 11c21 4 26 9 19 18-10 13-9 57 1 74 8 13-29 43-53 43-8-1-33-7-55-15s-44-10-48-6c-15 15 19 64 69 101 73 54 119 103 143 154 19 39 27 46 52 46 37 0 37 14-1 37-38 22-37 28 1 47 32 16 54 13 63-10 10-25 29-16 23 12-4 22-1 25 22 22 36-4 60-58 65-144 2-38 8-79 13-92l9-23 22 31c12 16 31 30 41 30s31 16 45 35c15 19 34 35 42 35 22 0 17 13-27 59-22 24-42 56-45 71-7 33-38 54-61 41-10-5-29-5-47 0-17 5-49 9-71 9-29 0-48 7-67 25-27 25-33 27-53 20zm-410-724c-9-18-11-32-5-36 5-3 12 7 16 22s12 31 18 35c8 5 7 8-1 8-7 0-19-13-28-29z"/>
    <path d="M2375 1420c3-5 18-10 33-10 21 0 24 2 12 10-20 13-53 13-45 0zm-35-28c0-20 31-50 48-45 23 6 53-44 34-56-15-9-5-41 12-41 6 0 19 18 28 40 16 40 16 41-9 70-19 23-30 29-48 24-12-3-26-1-29 5-8 13-36 15-36 3z"/>
  </g>
  <path d="M2468 2204c-21-21 54-90 86-78 9 3 45 0 80-7 52-10 70-10 95 1l31 12-23 17c-12 10-50 28-84 40-53 20-67 21-95 12-22-8-34-8-36-1-4 10-45 14-54 4zm-80-15c-17-7-31-22-37-42-13-39-95-178-136-231-27-36-31-49-36-135-4-58-16-130-32-181-30-99-60-251-55-276 3-15 8-13 37 12 30 25 43 29 98 29 72 0 82 14 37 56-15 13-35 43-46 67-18 40-18 44-3 56 9 7 26 36 38 66 14 34 29 56 40 58 16 3 17 1 7-18-16-30-3-82 18-76 10 3 29 8 44 11l27 7-35 30c-39 34-41 43-17 66 16 16 15 17-9 20-15 2-48-4-73-13-72-24-84-6-36 54 17 21 35 49 42 64 8 18 20 27 35 27 24 0 84 45 84 63 0 7 16 36 35 66 26 41 32 58 24 68-6 7-17 13-25 13-7 0-15 9-19 20-6 20 12 96 28 118 11 14 3 14-35 1zm-190-610c-24-15-32 9-12 38l19 28 3-29c2-16-2-32-10-37zm-8 451-35-29 38-1c35 0 37 2 37 30 0 17-1 30-3 30-1 0-18-13-37-30zm565-68c-65-83-64-83 40-29 56 29 68 63 27 78-19 7-28 1-67-49zm-679-538c-4-14-5-29-2-31 3-3 8 7 12 21 3 15 4 29 1 32-2 3-8-7-11-22zm270-32c-3-5 7-25 22-45 15-19 35-49 44-66 23-41 34-39 46 8 13 52-14 98-53 93-15-2-32 2-40 8s-16 7-19 2zm-223-189c-7-2-13-11-13-19 0-9 4-13 9-10 5 4 12 0 14-6 3-7 6-1 6 15 1 15 0 27-1 26-2 0-9-3-15-6z" fill="#A07462" style="transform:none"/>
  <path d="M2953 2615c0-8 7-15 15-15 7 0 12 5 10 12-6 18-25 21-25 3zm-28-27c10-25 35-30 61-13 13 9 24 18 24 20 0 3-11-2-25-11-24-16-27-16-46 2-16 15-19 15-14 2zm-440-399c1-14 12-30 27-38 23-13 28-13 43 2 21 21 20 21 89-3 32-11 69-19 82-18 21 2 22 4 8 19-29 32-83 50-167 56s-84 6-82-18zm-132-26c-16-16-49-43-74-60-115-84-154-121-160-151-5-26-3-31 18-37 31-7 43-41 44-128 1-69 2-70 9-26 9 51 28 93 63 135 55 68 137 224 143 272 3 29-7 28-43-5zm452-182c-22-10-50-32-62-49l-22-30 27 7c74 22 102 40 102 65 0 15-1 26-2 26-2 0-21-9-43-19zm-675-435c-5-14-15-54-20-89-13-72-22-161-14-133 12 40 42 82 67 94 32 15 33 22 10 65-9 18-19 43-21 57-5 35-10 37-22 6zm220-164c0-4 20-29 44-57l44-50 7 28c8 31-18 81-38 74-7-2-22 0-34 4-13 5-23 5-23 1z" fill="#A67B6B" style="transform:none"/>
</svg>
