<?xml version="1.0" encoding="utf-8"?>
<svg id="a706cf1c-1654-439b-8fcf-310eb7aa0e00" data-name="Layer 1" width="1120.59226" height="777.91584" viewBox="0 0 1120.59226 777.91584" xmlns="http://www.w3.org/2000/svg" xmlns:bx="https://boxy-svg.com">
  <defs>
    <style bx:fonts="Jacques Francois Shadow">@import url(https://fonts.googleapis.com/css2?family=Jacques+Francois+Shadow%3Aital%2Cwght%400%2C400&amp;display=swap);</style>
  </defs>
  <title>not found</title>
  <path d="M1160.29613,466.01367c0,123.61-73.4842,166.77-164.13156,166.77s-164.13156-43.16-164.13156-166.77S996.16457,185.15218,996.16457,185.15218,1160.29613,342.40364,1160.29613,466.01367Z" transform="translate(-39.70387 -61.04208)" style="fill: rgb(193, 187, 242);"/>
  <polygon points="950.482 552.833 952.162 449.383 1022.119 321.4 952.426 433.154 953.182 386.639 1001.396 294.044 953.382 374.329 953.382 374.329 954.741 290.669 1006.369 216.952 954.954 277.514 955.804 124.11 950.467 327.188 950.906 318.811 898.414 238.464 950.064 334.893 945.173 428.327 945.027 425.847 884.514 341.294 944.844 434.608 944.232 446.293 944.123 446.469 944.173 447.428 931.764 684.478 948.343 684.478 950.332 562.037 1010.514 468.952 950.482 552.833" fill="#3f3d56"/>
  <ellipse cx="554.59226" cy="680.47903" rx="554.59226" ry="28.03433" fill="#3f3d56"/>
  <ellipse cx="892.44491" cy="726.79663" rx="94.98858" ry="4.80162" fill="#3f3d56"/>
  <ellipse cx="548.71959" cy="773.11422" rx="94.98858" ry="4.80162" fill="#3f3d56"/>
  <ellipse cx="287.94432" cy="734.27887" rx="217.01436" ry="10.96996" fill="#3f3d56"/>
  <circle cx="708.52153" cy="545.71023" r="27" fill="#fff"/>
  <text style="fill: rgb(131, 9, 253); font-family: &quot;Jacques Francois Shadow&quot;; font-size: 84px; letter-spacing: -3.7px; text-anchor: middle; word-spacing: 18.2px; white-space: pre;" transform="matrix(1, 0, 0, 1, 0.908533, -33.614059)"><tspan style="fill: rgb(253, 32, 12); font-size: 150px; letter-spacing: 20px;" x="521.241" y="286.147">404</tspan><tspan x="521.241" dy="1.5em">​</tspan><tspan>NOT FOUND </tspan></text>
  <circle cx="712.48505" cy="565.41532" r="79" fill="#2f2e41" transform="matrix(0.9838, 0, 0, 1, -575.809814, -2.513249)" style=""/>
  <rect x="730.805" y="690.835" width="23.645" height="42.939" transform="matrix(0.954512, -0.298174, 0.289419, 0.957246, -788.305359, 189.350739)" fill="#2f2e41" style=""/>
  <rect x="776.01" y="676.755" width="23.645" height="42.939" transform="matrix(0.954513, -0.29817, 0.289415, 0.957248, -782.238586, 202.207123)" fill="#2f2e41" style=""/>
  <ellipse cx="767.887" cy="732.003" rx="19.704" ry="7.489" transform="matrix(0.954512, -0.298174, 0.289419, 0.957246, -804.235692, 196.704632)" fill="#2f2e41" style=""/>
  <ellipse cx="813.475" cy="716.946" rx="19.704" ry="7.489" transform="matrix(0.954512, -0.298174, 0.289419, 0.957246, -798.542771, 209.65421)" fill="#2f2e41" style=""/>
  <circle cx="708.52153" cy="545.71023" r="27" fill="#fff" transform="matrix(0.9838, 0, 0, 1, -575.809814, -2.513249)" style=""/>
  <circle cx="708.52153" cy="545.71023" r="9" fill="#3f3d56" transform="matrix(0.9838, 0, 0, 1, -575.809814, -2.513249)" style=""/>
  <path d="M 31.835 515.188 C 17.581 489.754 28.413 456.172 56.031 440.178 C 83.649 424.185 117.593 431.838 131.848 457.271 C 146.103 482.704 129.496 498.915 101.878 514.908 C 74.261 530.901 46.09 540.621 31.835 515.188 Z" style="fill: rgb(167, 54, 253);"/>
  <path d="M 246.246 618.829 C 246.246 673.904 214.036 693.135 174.3 693.135 C 173.38 693.135 172.461 693.124 171.543 693.104 C 169.702 693.064 167.879 692.974 166.077 692.85 C 130.216 690.27 102.355 670.05 102.355 618.829 C 102.355 565.82 168.996 498.932 174.002 493.982 L 174.011 493.973 C 174.204 493.782 174.3 493.688 174.3 493.688 C 174.3 493.688 246.246 563.753 246.246 618.829 Z" style="fill: rgb(167, 54, 253);"/>
  <path d="M 171.679 684.709 L 197.993 647.336 L 171.613 688.813 L 171.543 693.104 C 169.702 693.064 167.879 692.974 166.077 692.85 L 168.913 637.747 L 168.891 637.319 L 168.939 637.239 L 169.207 632.035 L 142.762 590.455 L 169.29 628.132 L 169.352 629.237 L 171.495 587.604 L 148.855 544.638 L 171.771 580.296 L 174.002 493.982 L 174.011 493.688 L 174.011 493.973 L 173.639 562.037 L 196.178 535.054 L 173.547 567.901 L 172.95 605.177 L 193.995 569.402 L 172.863 610.661 L 172.53 631.384 L 203.082 581.593 L 172.416 638.616 L 171.679 684.709 Z" fill="#3f3d56" style=""/>
  <ellipse cx="721.517" cy="656.822" rx="12.364" ry="38.975" transform="matrix(0.422836, -0.906206, 0.900858, 0.434298, -801.829119, 961.852966)" fill="#2f2e41" style=""/>
</svg>